<svg width="550" height="171" viewBox="0 0 550 171" fill="none" xmlns="http://www.w3.org/2000/svg">
<rect width="550" height="171" fill="#666666"/>
<rect x="13" y="10" width="526" height="148" fill="#8F8F8F"/>
<path d="M113.142 100H122.102V56.48H113.142V100ZM130.173 100H138.813V85.408C138.813 81.952 140.861 80.032 144.317 80.032C147.389 80.032 148.861 81.76 148.861 84.832V100H157.501V84.256C157.501 76.512 153.213 72.16 147.261 72.16C143.485 72.16 140.285 73.952 138.621 77.216L138.813 72.736H130.173V100ZM175.894 100.704C179.862 100.704 182.166 99.296 183.51 98.208L180.246 92.192C179.67 92.576 178.646 93.344 177.238 93.344C175.894 93.344 174.998 92.768 174.998 90.016V79.904H181.974V72.736H174.998V58.528H166.422V72.736H162.39V79.904H166.422V89.76C166.422 97.952 170.39 100.704 175.894 100.704ZM198.235 68H204.763L211.419 55.968H201.563L198.235 68ZM195.483 88.992H216.155C216.795 79.456 211.483 72.16 201.691 72.16C193.243 72.16 186.651 78.048 186.651 86.304C186.651 94.688 192.923 100.576 202.651 100.576C208.347 100.576 211.675 98.848 214.299 96.544L209.371 91.232C208.027 92.192 205.659 93.408 202.523 93.408C198.619 93.408 196.315 91.808 195.483 88.992ZM195.355 84C196.059 80.736 198.363 79.2 201.755 79.2C205.147 79.2 207.067 80.992 207.451 84H195.355ZM222.048 100H230.688V87.904C230.688 82.08 232.8 80.288 236.704 80.288C237.92 80.288 238.944 80.608 240.032 81.12L242.784 73.248C241.696 72.672 240.352 72.16 238.56 72.16C235.744 72.16 232.544 73.184 230.56 77.664L230.688 72.736H222.048V100ZM254.045 88.992H274.717C275.357 79.456 270.045 72.16 260.253 72.16C251.805 72.16 245.213 78.048 245.213 86.304C245.213 94.688 251.485 100.576 261.213 100.576C266.909 100.576 270.237 98.848 272.861 96.544L267.933 91.232C266.589 92.192 264.221 93.408 261.085 93.408C257.181 93.408 254.877 91.808 254.045 88.992ZM253.917 84C254.621 80.736 256.925 79.2 260.317 79.2C263.709 79.2 265.629 80.992 266.013 84H253.917ZM290.73 100.576C299.306 100.576 301.93 96.48 301.93 91.488C301.93 85.728 296.938 83.872 292.97 82.976C289.258 82.144 287.53 81.952 287.53 80.416C287.53 79.328 288.49 78.816 290.474 78.816C292.522 78.816 294.442 79.776 295.722 80.864L300.33 75.936C298.09 73.632 294.89 72.16 290.41 72.16C284.586 72.16 279.85 74.656 279.85 80.8C279.85 86.496 284.01 88.544 287.722 89.504C292.138 90.656 293.866 90.656 293.866 92.128C293.866 93.28 292.97 93.792 290.154 93.792C287.594 93.792 285.226 92.704 283.37 90.912L278.314 95.392C280.682 98.208 284.394 100.576 290.73 100.576ZM317.668 100.576C326.244 100.576 328.868 96.48 328.868 91.488C328.868 85.728 323.876 83.872 319.908 82.976C316.196 82.144 314.468 81.952 314.468 80.416C314.468 79.328 315.428 78.816 317.412 78.816C319.46 78.816 321.38 79.776 322.66 80.864L327.268 75.936C325.028 73.632 321.828 72.16 317.348 72.16C311.524 72.16 306.788 74.656 306.788 80.8C306.788 86.496 310.948 88.544 314.66 89.504C319.076 90.656 320.804 90.656 320.804 92.128C320.804 93.28 319.908 93.792 317.092 93.792C314.532 93.792 312.164 92.704 310.308 90.912L305.252 95.392C307.62 98.208 311.332 100.576 317.668 100.576ZM344.797 68H351.325L357.981 55.968H348.125L344.797 68ZM342.045 88.992H362.717C363.357 79.456 358.045 72.16 348.253 72.16C339.805 72.16 333.213 78.048 333.213 86.304C333.213 94.688 339.485 100.576 349.213 100.576C354.909 100.576 358.237 98.848 360.861 96.544L355.933 91.232C354.589 92.192 352.221 93.408 349.085 93.408C345.181 93.408 342.877 91.808 342.045 88.992ZM341.917 84C342.621 80.736 344.925 79.2 348.317 79.2C351.709 79.2 353.629 80.992 354.013 84H341.917ZM373.219 88.928C376.099 88.928 378.595 86.688 378.595 83.488C378.595 80.352 376.099 78.112 373.219 78.112C370.275 78.112 367.779 80.352 367.779 83.488C367.779 86.688 370.275 88.928 373.219 88.928ZM392.42 88.992H413.092C413.732 79.456 408.42 72.16 398.628 72.16C390.18 72.16 383.588 78.048 383.588 86.304C383.588 94.688 389.86 100.576 399.588 100.576C405.284 100.576 408.612 98.848 411.236 96.544L406.308 91.232C404.964 92.192 402.596 93.408 399.46 93.408C395.556 93.408 393.252 91.808 392.42 88.992ZM392.292 84C392.996 80.736 395.3 79.2 398.692 79.2C402.084 79.2 404.004 80.992 404.388 84H392.292ZM421.917 85.216H429.981V81.44C437.021 80.416 440.861 75.808 440.861 68.96C440.861 62.24 435.805 55.904 426.653 55.904C419.933 55.904 415.261 58.656 412.957 63.712L419.869 67.744C421.405 65.184 423.133 63.584 426.653 63.584C429.981 63.584 432.029 66.272 432.029 68.96C432.029 72.16 430.109 75.04 424.861 75.04H421.917V85.216ZM425.885 100.384C428.765 100.384 431.261 98.144 431.261 94.944C431.261 91.808 428.765 89.568 425.885 89.568C422.941 89.568 420.445 91.808 420.445 94.944C420.445 98.144 422.941 100.384 425.885 100.384Z" fill="white"/>
</svg>
