<svg width="418" height="254" viewBox="0 0 418 254" fill="none" xmlns="http://www.w3.org/2000/svg">
<path d="M416.984 101.21C418.49 161.597 323.646 251.425 266.362 252.997C313.409 251.675 400.405 145.379 400.405 84.9999H416.984V101.21Z" fill="#F9C4AE" stroke="#F9C4AE"/>
<path d="M83.8945 84.9999C86.9088 92.3683 100.473 124.789 114.038 154.263L98.9663 142.474L88.416 126.263L73.3442 95.3157C55.258 98.263 30.6407 102.684 16.0713 108.579V84.9999H83.8945Z" fill="#9C9C9C" stroke="#9C9C9C"/>
<path d="M133.632 174.895C101.981 166.053 73.3447 123.316 68.8232 105.632L1 124.79C21.4977 197.884 87.9142 235.807 118.56 245.632C118.56 222.053 126.096 191.105 133.632 174.895Z" fill="#6E6F6E" stroke="#6E6F6E"/>
<path d="M189.397 183.737H162.268L147.196 250.053H210.498C278.321 251.526 362.723 152.789 361.216 96.7895V11.3158L331.073 14.2632L305.45 46.6842L328.058 80.5789L302.436 73.2105L293.393 70.2632V82.0526C293.393 139.526 222.555 183.737 189.397 183.737Z" fill="#E3000B"/>
<path d="M267.771 93.8421L285.857 65.8421L269.278 1L267.771 34.8947L233.106 46.6842L267.771 58.4737V93.8421Z" fill="#E3000B"/>
<path d="M189.397 183.737H162.268L147.196 250.053H210.498C278.321 251.526 362.723 152.789 361.216 96.7895V11.3158L331.073 14.2632L305.45 46.6842L328.058 80.5789L302.436 73.2105L293.393 70.2632V82.0526C293.393 139.526 222.555 183.737 189.397 183.737Z" stroke="#E3000B"/>
<path d="M267.771 93.8421L285.857 65.8421L269.278 1L267.771 34.8947L233.106 46.6842L267.771 58.4737V93.8421Z" stroke="#E3000B"/>
<path d="M391.36 85.0001C391.36 167.526 308.465 236.79 254.206 245.632C326.551 208.511 373.273 123.316 373.273 85.0001V55.5265H391.36V85.0001Z" fill="#EE7455" stroke="#EE7455"/>
<path d="M31.1426 55.5265V71.737L89.6663 76.3333L104.995 115.948V70.2633C86.9083 59.6528 48.224 56.0177 31.1426 55.5265Z" fill="#D9DADA" stroke="#D9DADA"/>
</svg>
