<svg width="180" height="180" viewBox="0 0 180 180" fill="none" xmlns="http://www.w3.org/2000/svg">
<circle cx="90" cy="90" r="90" fill="#379AD6"/>
<path fill-rule="evenodd" clip-rule="evenodd" d="M51 57H129L121.5 136L90 144.5L58.5 136L51 57ZM65.5 73H114L113 82.5L89.5 92.5H112.5L110 122L90 127.5L70.5 122L69 107H78.5L79 114.5L90 117.5L101 114.5L102 102H68.5L67.5 92.5L91.5 82.5H67L65.5 73Z" fill="white"/>
<path d="M129 57L129.498 57.0473L129.55 56.5H129V57ZM51 57V56.5H50.4503L50.5022 57.0473L51 57ZM121.5 136L121.63 136.483L121.965 136.392L121.998 136.047L121.5 136ZM90 144.5L89.8697 144.983L90 145.018L90.1303 144.983L90 144.5ZM58.5 136L58.0022 136.047L58.035 136.392L58.3697 136.483L58.5 136ZM114 73L114.497 73.0523L114.555 72.5H114V73ZM65.5 73V72.5H64.9149L65.0061 73.078L65.5 73ZM113 82.5L113.196 82.9601L113.466 82.8449L113.497 82.5523L113 82.5ZM89.5 92.5L89.3042 92.0399L89.5 93V92.5ZM112.5 92.5L112.998 92.5422L113.044 92H112.5V92.5ZM110 122L110.133 122.482L110.469 122.39L110.498 122.042L110 122ZM90 127.5L89.8643 127.981L89.9983 128.019L90.1326 127.982L90 127.5ZM70.5 122L70.0025 122.05L70.0364 122.389L70.3643 122.481L70.5 122ZM69 107V106.5H68.4475L68.5025 107.05L69 107ZM78.5 107L78.9989 106.967L78.9678 106.5H78.5V107ZM79 114.5L78.5011 114.533L78.5248 114.889L78.8684 114.982L79 114.5ZM90 117.5L89.8684 117.982L90 118.018L90.1316 117.982L90 117.5ZM101 114.5L101.132 114.982L101.47 114.89L101.498 114.54L101 114.5ZM102 102L102.498 102.04L102.542 101.5H102V102ZM68.5 102L68.0027 102.052L68.0499 102.5H68.5V102ZM67.5 92.5L67.3077 92.0385L66.9637 92.1818L67.0027 92.5523L67.5 92.5ZM91.5 82.5L91.6923 82.9615L91.5 82V82.5ZM67 82.5L66.5061 82.578L66.5728 83H67V82.5ZM129 56.5H51V57.5H129V56.5ZM121.998 136.047L129.498 57.0473L128.502 56.9527L121.002 135.953L121.998 136.047ZM90.1303 144.983L121.63 136.483L121.37 135.517L89.8697 144.017L90.1303 144.983ZM58.3697 136.483L89.8697 144.983L90.1303 144.017L58.6303 135.517L58.3697 136.483ZM50.5022 57.0473L58.0022 136.047L58.9978 135.953L51.4978 56.9527L50.5022 57.0473ZM114 72.5H65.5V73.5H114V72.5ZM113.497 82.5523L114.497 73.0523L113.503 72.9477L112.503 82.4477L113.497 82.5523ZM89.6958 92.9601L113.196 82.9601L112.804 82.0399L89.3042 92.0399L89.6958 92.9601ZM112.5 92H89.5V93H112.5V92ZM110.498 122.042L112.998 92.5422L112.002 92.4578L109.502 121.958L110.498 122.042ZM90.1326 127.982L110.133 122.482L109.867 121.518L89.8674 127.018L90.1326 127.982ZM70.3643 122.481L89.8643 127.981L90.1357 127.019L70.6357 121.519L70.3643 122.481ZM68.5025 107.05L70.0025 122.05L70.9975 121.95L69.4975 106.95L68.5025 107.05ZM78.5 106.5H69V107.5H78.5V106.5ZM79.4989 114.467L78.9989 106.967L78.0011 107.033L78.5011 114.533L79.4989 114.467ZM90.1316 117.018L79.1316 114.018L78.8684 114.982L89.8684 117.982L90.1316 117.018ZM100.868 114.018L89.8684 117.018L90.1316 117.982L101.132 114.982L100.868 114.018ZM101.502 101.96L100.502 114.46L101.498 114.54L102.498 102.04L101.502 101.96ZM68.5 102.5H102V101.5H68.5V102.5ZM67.0027 92.5523L68.0027 102.052L68.9973 101.948L67.9973 92.4477L67.0027 92.5523ZM91.3077 82.0385L67.3077 92.0385L67.6923 92.9615L91.6923 82.9615L91.3077 82.0385ZM67 83H91.5V82H67V83ZM65.0061 73.078L66.5061 82.578L67.4939 82.422L65.9939 72.922L65.0061 73.078Z" fill="white"/>
<path d="M67.5 36H79V40.5H72V46H79V50H67.5V36Z" fill="white"/>
<path d="M96 50H84V46H89L84 40.5V36H96V41H91.5L96 46V50Z" fill="white"/>
<path d="M101 50V46H106L101 41V36H112.5V41H107.5L112.5 46V50H101Z" fill="white"/>
<path d="M67.5 36H79V40.5H72V46H79V50H67.5V36Z" stroke="white"/>
<path d="M96 50H84V46H89L84 40.5V36H96V41H91.5L96 46V50Z" stroke="white"/>
<path d="M101 50V46H106L101 41V36H112.5V41H107.5L112.5 46V50H101Z" stroke="white"/>
</svg>
