<svg width="180" height="180" viewBox="0 0 180 180" fill="none" xmlns="http://www.w3.org/2000/svg">
<circle cx="90" cy="90" r="90" fill="#1D91B4"/>
<path fill-rule="evenodd" clip-rule="evenodd" d="M103.084 86.5331H116.281V100.095H122.953C126.035 100.095 129.204 99.5433 132.122 98.5494C133.556 98.0603 135.165 97.3803 136.58 96.5246C134.717 94.0797 133.766 90.9925 133.486 87.9494C133.105 83.8097 133.936 78.4221 136.723 75.1824L138.11 73.5694L139.763 74.9056C143.925 78.2666 147.425 82.9638 148.042 88.3184C153.053 86.8366 158.937 87.187 163.354 89.7497L165.166 90.801L164.213 92.6727C160.477 100.002 152.667 102.272 145.031 101.87C133.606 130.479 108.731 144.023 78.5701 144.023C62.9875 144.023 48.6919 138.167 40.5509 124.269L40.4175 124.043L39.2315 121.617C36.4798 115.499 35.5656 108.797 36.1854 102.101L36.3718 100.095H47.6571V86.5331H60.8533V73.2666H87.2474V60H103.084V86.5331Z" fill="white"/>
<path fill-rule="evenodd" clip-rule="evenodd" d="M145.839 91.5506C146.724 84.6371 141.577 79.2071 138.386 76.6288C134.708 80.9036 134.136 92.107 139.907 96.8239C136.686 99.6993 129.901 102.306 122.953 102.306H38.3766C37.7014 109.597 38.9746 116.311 41.8827 122.058L42.8448 123.828C43.454 124.866 44.1197 125.87 44.8388 126.835C48.316 127.06 51.522 127.137 54.455 127.072H54.4562C60.22 126.944 64.9231 126.26 68.4875 125.018C68.7395 124.939 69.012 124.962 69.2476 125.082C69.4831 125.201 69.6632 125.408 69.7496 125.659C69.836 125.91 69.8221 126.184 69.7108 126.425C69.5994 126.665 69.3993 126.853 69.1529 126.948C68.6785 127.114 68.1845 127.268 67.6743 127.415H67.6726C64.8659 128.221 61.8562 128.763 57.9732 129.003C58.2041 129.008 57.7331 129.038 57.732 129.038C57.5998 129.047 57.4336 129.066 57.3009 129.073C55.7726 129.16 54.1232 129.178 52.4368 129.178C50.5923 129.178 48.776 129.143 46.7451 129.038L46.6931 129.073C53.74 137.036 64.7586 141.811 78.5706 141.811C107.801 141.811 132.595 128.785 143.574 99.5404C151.363 100.344 158.849 98.3469 162.254 91.6643C156.831 88.518 149.855 89.5211 145.839 91.5506Z" fill="white"/>
<path fill-rule="evenodd" clip-rule="evenodd" d="M145.839 91.5506C146.724 84.6371 141.578 79.2071 138.386 76.6288C134.708 80.9036 134.137 92.107 139.907 96.8239C136.686 99.6994 129.901 102.306 122.953 102.306H43.3851C43.0399 113.472 47.1618 121.948 54.4545 127.072H54.4562C60.2201 126.944 64.9231 126.26 68.4875 125.018C68.7395 124.939 69.0121 124.962 69.2476 125.082C69.4832 125.201 69.6632 125.408 69.7497 125.659C69.8361 125.91 69.8222 126.184 69.7108 126.425C69.5994 126.665 69.3994 126.853 69.1529 126.948C68.6785 127.114 68.1845 127.268 67.6743 127.415H67.6726C64.866 128.221 61.5977 128.832 57.7147 129.073C57.7136 129.073 57.6207 128.983 57.6195 128.983C67.5676 134.113 81.9919 134.095 98.5297 127.709C117.073 120.547 134.329 106.903 146.368 91.2977C146.187 91.38 146.01 91.4642 145.839 91.5506Z" fill="white"/>
<path fill-rule="evenodd" clip-rule="evenodd" d="M38.5356 111.164C39.0608 115.07 40.1978 118.727 41.883 122.058L42.8451 123.828C43.4542 124.866 44.1199 125.87 44.8391 126.835C48.3169 127.06 51.5229 127.137 54.4565 127.072C60.2203 126.944 64.9234 126.26 68.4878 125.018C68.7397 124.939 69.0123 124.962 69.2479 125.082C69.4834 125.201 69.6635 125.408 69.7499 125.659C69.8363 125.91 69.8224 126.184 69.711 126.425C69.5997 126.665 69.3996 126.853 69.1532 126.948C68.6788 127.114 68.1848 127.268 67.6746 127.415H67.6728C64.8662 128.221 61.6152 128.797 57.7323 129.039C57.599 129.047 57.3664 129.049 57.2319 129.056C55.7048 129.142 54.0721 129.195 52.3851 129.195C50.5412 129.195 48.6551 129.16 46.6253 129.056C53.6721 137.018 64.7589 141.811 78.5709 141.811C103.595 141.811 125.367 132.262 138.004 111.164H38.5356Z" fill="white"/>
<path fill-rule="evenodd" clip-rule="evenodd" d="M44.146 111.164C45.6419 118.022 49.2369 123.406 54.4559 127.072C60.2198 126.944 64.9228 126.26 68.4872 125.018C68.7392 124.939 69.0118 124.962 69.2473 125.082C69.4829 125.201 69.6629 125.408 69.7494 125.659C69.8358 125.91 69.8219 126.184 69.7105 126.425C69.5991 126.665 69.3991 126.853 69.1527 126.948C68.6782 127.114 68.1842 127.268 67.674 127.415H67.6723C64.8657 128.221 61.546 128.797 57.6625 129.039C67.61 134.168 81.9927 134.094 98.5294 127.708C108.533 123.844 118.162 118.092 126.8 111.164H44.146Z" fill="white"/>
<path fill-rule="evenodd" clip-rule="evenodd" d="M49.856 88.7443H61.2936V100.242H49.856V88.7443ZM50.8088 89.7027H51.7114V99.2845H50.8088V89.7027ZM52.5056 89.7027H53.4446V99.2845H52.5062V89.7027H52.5056ZM54.2381 89.7027H55.1771V99.2845H54.2381V89.7027ZM55.9718 89.7027H56.9103V99.2845H55.9718V89.7027ZM57.705 89.7027H58.6434V99.2845H57.705V89.7027ZM59.4375 89.7027H60.3408V99.2845H59.4375V89.7027ZM63.0527 75.4777H74.4909V86.9753H63.0521V75.4777H63.0527ZM64.0061 76.4362H64.9082V86.0174H64.0061V76.4362ZM65.7029 76.4362H66.6413V86.0174H65.7035V76.4362H65.7029ZM67.4355 76.4362H68.3739V86.0174H67.4355V76.4362ZM69.1686 76.4362H70.107V86.0174H69.1686V76.4362ZM70.9017 76.4362H71.8407V86.0174H70.9017V76.4362ZM72.6343 76.4362H73.5381V86.0174H72.6343V76.4362Z" fill="white"/>
<path fill-rule="evenodd" clip-rule="evenodd" d="M63.0531 88.7442H74.4913V100.242H63.0525V88.7442H63.0531ZM64.0065 89.7027H64.9086V99.2845H64.0065V89.7027ZM65.7033 89.7027H66.6417V99.2845H65.7038V89.7027H65.7033ZM67.4358 89.7027H68.3742V99.2845H67.4358V89.7027ZM69.169 89.7027H70.1074V99.2845H69.169V89.7027ZM70.9021 89.7027H71.8411V99.2845H70.9021V89.7027ZM72.6347 89.7027H73.5384V99.2845H72.6347V89.7027Z" fill="white"/>
<path fill-rule="evenodd" clip-rule="evenodd" d="M76.25 88.7442H87.6877V100.242H76.25V88.7442ZM77.2028 89.7027H78.1049V99.2845H77.2028V89.7027ZM78.8996 89.7027H79.838V99.2845H78.8996V89.7027ZM80.6328 89.7027H81.5712V99.2845H80.6328V89.7027ZM82.3659 89.7027H83.3043V99.2845H82.3659V89.7027ZM84.0985 89.7027H85.038V99.2845H84.0985V89.7027ZM85.8316 89.7027H86.7342V99.2845H85.8316V89.7027Z" fill="white"/>
<path fill-rule="evenodd" clip-rule="evenodd" d="M76.25 75.4777H87.6876V86.9753H76.25V75.4777ZM77.2028 76.4362H78.1049V86.0174H77.2028V76.4362ZM78.8996 76.4362H79.838V86.0174H78.8996V76.4362ZM80.6328 76.4362H81.5712V86.0174H80.6328V76.4362ZM82.3659 76.4362H83.3043V86.0174H82.3659V76.4362ZM84.0985 76.4362H85.038V86.0174H84.0985V76.4362ZM85.8316 76.4362H86.7342V86.0174H85.8316V76.4362ZM89.4468 88.7443H100.884V100.242H89.4468V88.7443ZM90.4002 89.7027H91.3022V99.2845H90.4002V89.7027ZM92.097 89.7027H93.0354V99.2845H92.097V89.7027ZM93.8295 89.7027H94.7679V99.2845H93.8295V89.7027ZM95.5626 89.7027H96.5016V99.2845H95.5626V89.7027ZM97.2958 89.7027H98.2348V99.2845H97.2958V89.7027ZM99.0289 89.7027H99.9316V99.2845H99.0289V89.7027Z" fill="white"/>
<path fill-rule="evenodd" clip-rule="evenodd" d="M89.447 75.4777H100.885V86.9753H89.447V75.4777ZM90.4004 76.4362H91.3025V86.0174H90.4004V76.4362ZM92.0972 76.4362H93.0356V86.0174H92.0972V76.4362ZM93.8298 76.4362H94.7682V86.0174H93.8298V76.4362ZM95.5629 76.4362H96.5019V86.0174H95.5629V76.4362ZM97.2961 76.4362H98.235V86.0174H97.2961V76.4362ZM99.0292 76.4362H99.9318V86.0174H99.0292V76.4362Z" fill="white"/>
<path fill-rule="evenodd" clip-rule="evenodd" d="M89.447 62.2105H100.885V73.7098H89.447V62.2105ZM90.4004 63.1684H91.3025V72.7508H90.4004V63.1678V63.1684ZM92.0972 63.1684H93.0356V72.7508H92.0972V63.1678V63.1684ZM93.8298 63.1684H94.7682V72.7508H93.8298V63.1678V63.1684ZM95.5629 63.1684H96.5019V72.7508H95.5629V63.1678V63.1684ZM97.2961 63.1684H98.235V72.7508H97.2961V63.1678V63.1684ZM99.0292 63.1684H99.9318V72.7508H99.0292V63.1678V63.1684Z" fill="white"/>
<path fill-rule="evenodd" clip-rule="evenodd" d="M102.644 88.7442H114.081V100.242H102.644V88.7442ZM103.596 89.7027H104.499V99.2845H103.597V89.7027H103.596ZM105.293 89.7027H106.232V99.2845H105.293V89.7027H105.293ZM107.027 89.7027H107.966V99.2845H107.027V89.7027ZM108.759 89.7027H109.698V99.2845H108.759V89.7027ZM110.493 89.7027H111.431V99.2845H110.493V89.7027ZM112.225 89.7027H113.128V99.2845H112.225V89.7027Z" fill="white"/>
<path fill-rule="evenodd" clip-rule="evenodd" d="M73.7748 118.884C74.1928 118.879 74.6077 118.957 74.9955 119.114C75.3832 119.271 75.7361 119.503 76.0336 119.799C76.3312 120.094 76.5674 120.445 76.7286 120.833C76.8898 121.221 76.9727 121.637 76.9727 122.057C76.9726 122.477 76.8895 122.893 76.7281 123.281C76.5668 123.669 76.3304 124.02 76.0328 124.315C75.7352 124.611 75.3822 124.843 74.9944 125C74.6066 125.157 74.1916 125.235 73.7737 125.229C72.9442 125.217 72.1525 124.878 71.57 124.284C70.9875 123.691 70.661 122.89 70.6611 122.056C70.6613 121.222 70.9881 120.422 71.5708 119.828C72.1535 119.235 72.9453 118.896 73.7748 118.884Z" fill="white"/>
<path fill-rule="evenodd" clip-rule="evenodd" d="M82.1623 141.743C74.3479 138.015 70.0592 132.947 67.6728 127.415C64.7698 128.248 61.281 128.781 57.2266 129.009C55.6996 129.095 54.0928 129.139 52.4076 129.139C50.4638 129.139 48.4155 129.081 46.2651 128.967C53.4314 136.167 62.2471 141.71 78.5708 141.811C79.7759 141.811 80.9717 141.788 82.1623 141.743Z" fill="white"/>
<path fill-rule="evenodd" clip-rule="evenodd" d="M70.5751 132.52C69.4941 131.045 68.4455 129.19 67.6744 127.414C64.7714 128.248 61.2815 128.781 57.2266 129.01C60.0118 130.529 63.9946 131.938 70.5757 132.52" fill="white"/>
<path fill-rule="evenodd" clip-rule="evenodd" d="M63.4875 30.6613V25.276C63.4875 24.5684 63.9241 24 64.6472 24H64.8473C65.5701 24 66.0048 24.5691 66.0048 25.276V36.6137C66.0048 39.3784 64.6566 41.5784 62.3073 42.9798C61.2312 43.6258 60.0027 43.9652 58.7519 43.9623H58.2526C55.5232 43.9623 53.3549 42.5954 51.9694 40.2167C51.3309 39.1265 50.9959 37.8814 51 36.6137V36.1085C51 33.3428 52.3488 31.1442 54.6962 29.7401C55.7721 29.0928 57.0012 28.7532 58.2526 28.7576H58.7519C60.599 28.7576 62.166 29.483 63.4875 30.6613ZM74.7373 28.7576H75.0862C78.0027 28.7576 80.2208 30.191 81.6264 32.7704C82.1884 33.8022 82.4892 34.9285 82.4892 36.1085V36.6137C82.4892 39.3784 81.1437 41.5813 78.7908 42.9801C77.7016 43.6275 76.4983 43.9623 75.236 43.9623H74.7373C72.008 43.9623 69.8389 42.5954 68.4541 40.2167C67.8153 39.1266 67.48 37.8815 67.4838 36.6137V36.1085C67.4838 33.3424 68.8381 31.1511 71.1796 29.7407C72.2682 29.0854 73.4724 28.7576 74.7373 28.7576ZM91.4514 31.2574C91.862 31.2732 92.5734 31.3331 92.9535 31.5135C93.2888 31.6734 94.1428 32.0674 94.5183 32.0674H94.6671L94.7152 32.0588C95.2953 31.9456 95.7761 31.5954 95.7761 30.9444V30.6919C95.7761 30.453 95.6731 30.2206 95.5536 30.0199L95.4961 29.9237L95.4051 29.8599C94.2974 29.0933 93.0617 28.7073 91.7201 28.7073H91.2211C89.9565 28.7073 88.7526 29.0364 87.664 29.6914C85.3228 31.1004 83.9682 33.2911 83.9682 36.0568V36.5614C83.9682 37.221 84.0523 37.8496 84.2391 38.4825C85.3144 42.1273 88.135 44.2259 91.9065 43.9616C92.9753 43.8859 95.7761 43.5304 95.7761 41.9776V41.7251C95.7761 41.1011 95.3441 40.7335 94.7717 40.6127L94.7204 40.6021H94.2548L94.1509 40.6522C93.5512 40.9408 92.5962 41.3601 91.9205 41.3601C91.1522 41.3601 90.2446 41.2956 89.5416 40.9553C87.6172 40.0229 86.4851 38.4934 86.4851 36.3089C86.4851 35.5914 86.6258 34.9052 86.9341 34.2568C87.8268 32.3771 89.3483 31.1771 91.4514 31.2574ZM101.118 33.2404C102.096 32.2484 103.077 31.2584 104.069 30.2828C104.11 30.2428 104.167 30.1837 104.237 30.1121L104.237 30.112L104.237 30.112C104.64 29.6966 105.454 28.8587 105.805 28.8587H106.256L106.307 28.8695C106.882 28.9903 107.312 29.3586 107.312 29.984V30.2361C107.312 30.6346 106.881 31.0935 106.603 31.3902L106.603 31.3902L106.547 31.4503C106.156 31.8696 105.752 32.2796 105.348 32.6889L105.348 32.689L105.348 32.689L105.348 32.6891C105.154 32.886 104.96 33.0827 104.768 33.2802L101.727 36.4083C103.036 37.738 104.344 39.0687 105.643 40.4086C106.003 40.7784 106.361 41.151 106.715 41.5263C106.743 41.5554 106.773 41.586 106.804 41.618L106.804 41.618L106.804 41.6182C106.917 41.733 107.048 41.8659 107.13 42.0102C107.243 42.1833 107.312 42.3785 107.312 42.5868V42.8501L107.297 42.911C107.156 43.4929 106.791 43.9623 106.155 43.9623H105.955C105.562 43.9623 105.122 43.5389 104.834 43.2617L104.783 43.2122C104.395 42.842 104.016 42.4592 103.638 42.077L103.638 42.0768C103.442 41.8793 103.247 41.6819 103.051 41.4865L101.118 39.5644V42.6365C101.118 43.3442 100.681 43.9129 99.9589 43.9129H99.7607C99.0376 43.9129 98.601 43.3442 98.601 42.6365V25.3254C98.601 24.6178 99.0379 24.0517 99.7607 24.0517H99.9589C100.681 24.0517 101.118 24.6178 101.118 25.3254V33.2404ZM132.741 28.8587H132.491C131.023 28.8587 129.65 29.3116 128.451 30.1689C126.442 31.6043 125.238 33.6508 125.238 36.1579V42.6865C125.238 43.3945 125.674 43.9623 126.397 43.9623H126.596C127.32 43.9623 127.756 43.3942 127.756 42.6865V36.5123C127.756 35.1458 128.181 33.9026 129.153 32.932C129.932 32.1543 131.011 31.4608 132.142 31.4608C133.004 31.4608 134 31.1906 134 30.1347C134 29.3741 133.496 28.8587 132.741 28.8587ZM114.6 41.0945C115.516 41.4187 116.561 41.3723 117.501 41.2064L117.568 41.1773L117.568 41.1773C118.088 40.9529 119.23 40.4595 119.663 40.5357L119.733 40.5478L119.798 40.5801C120.074 40.7157 120.338 40.9076 120.479 41.1923C120.808 41.8594 120.65 42.5302 120.003 42.909L119.788 43.0351C117.4 44.4313 114.86 44.2378 112.48 42.9337C111.342 42.3103 110.472 41.3852 109.829 40.2572L109.679 39.9936C108.146 37.3039 108.353 34.4747 110.082 31.917C110.679 31.0329 111.459 30.35 112.371 29.8158L112.716 29.614C114.964 28.2988 117.374 28.389 119.684 29.5433C120.926 30.164 121.932 31.0892 122.625 32.306L122.75 32.5252C123.253 33.4093 122.601 34.1794 121.927 34.706C121.361 35.1488 120.79 35.6569 120.234 36.1524L120.233 36.1535C120.022 36.3413 119.813 36.5273 119.608 36.7072C118.578 37.6076 117.55 38.5094 116.521 39.411L116.52 39.4121L116.517 39.4144L116.512 39.4191L116.505 39.4256L116.504 39.4257L116.504 39.4259L116.504 39.4261C115.869 39.9824 115.235 40.5386 114.6 41.0945ZM70.001 36.3606C70.001 38.2992 70.9398 39.7253 72.5559 40.7282C73.3148 41.1989 74.1506 41.4121 75.0371 41.4121C76.9277 41.4121 78.3252 40.4409 79.2978 38.8242C79.7617 38.0533 79.9715 37.2065 79.9715 36.3089C79.9715 34.5063 79.1146 33.1292 77.6495 32.1312C76.8468 31.5839 75.9532 31.3097 74.9864 31.3097C72.8775 31.3097 71.3598 32.3893 70.4493 34.3068C70.1413 34.9552 70.001 35.6434 70.001 36.3606ZM56.1994 40.8171C54.4722 39.8593 53.5168 38.3578 53.5168 36.3606C53.5168 35.6434 53.6572 34.9552 53.9645 34.3068C54.8754 32.3893 56.3931 31.3097 58.502 31.3097C59.5269 31.3097 60.4666 31.6148 61.3015 32.2231C62.6785 33.2266 63.4874 34.5777 63.4874 36.3089C63.4874 37.2078 63.273 38.0533 62.8127 38.8261C61.8229 40.4873 60.3877 41.4121 58.4529 41.4121C57.6561 41.4121 56.8979 41.2041 56.1994 40.8171ZM112.439 39.5562C114.306 37.9335 116.175 36.3093 118.038 34.6797C118.247 34.4972 118.462 34.3125 118.68 34.1259C119.126 33.7439 119.58 33.3543 120.004 32.9613C119.497 32.3142 118.651 31.8479 117.932 31.5697C116.48 31.0092 115.048 31.1975 113.717 31.9762C111.974 32.9959 111.231 34.6195 111.296 36.64C111.322 37.4359 111.534 38.2028 111.95 38.8798C112.097 39.1184 112.261 39.3426 112.439 39.5562Z" fill="white"/>
</svg>
