<svg width="180" height="180" viewBox="0 0 180 180" fill="none" xmlns="http://www.w3.org/2000/svg">
<circle cx="90" cy="90" r="90" fill="#F05133"/>
<path d="M136.189 108.723L94.2746 66.8108C91.8619 64.3964 87.9469 64.3964 85.5309 66.8108L76.8281 75.5152L87.8681 86.5557C90.4344 85.6893 93.3768 86.2708 95.4214 88.3158C97.4783 90.3735 98.0544 93.3412 97.166 95.9163L107.807 106.556C110.382 105.669 113.351 106.243 115.408 108.302C118.281 111.175 118.281 115.831 115.408 118.705C112.533 121.58 107.878 121.58 105.002 118.705C102.841 116.542 102.306 113.367 103.402 110.704L93.4768 100.78V126.896C94.1766 127.242 94.8378 127.704 95.4214 128.286C98.2944 131.159 98.2944 135.815 95.4214 138.692C92.5483 141.564 87.8898 141.564 85.0188 138.692C82.1458 135.815 82.1458 131.159 85.0188 128.286C85.7289 127.577 86.5512 127.04 87.4286 126.681V100.324C86.5512 99.9651 85.7309 99.433 85.0188 98.7188C82.8428 96.5436 82.3192 93.3494 83.4354 90.6767L72.5512 79.7909L43.8105 108.529C41.3965 110.946 41.3965 114.861 43.8105 117.275L85.7268 159.188C88.14 161.602 92.0537 161.602 94.4705 159.188L136.189 117.469C138.604 115.054 138.604 111.137 136.189 108.723Z" fill="white"/>
<path d="M78.5783 50.36C81.6263 50.36 84.1703 49.328 85.9943 47.84V40.064H77.8583V43.664H80.7383V45.344C80.3063 45.584 79.7783 45.728 78.8183 45.728C76.4663 45.728 74.8103 44.096 74.8103 41.72V41.672C74.8103 39.392 76.3943 37.712 78.5783 37.712C79.9703 37.712 81.1943 38.24 82.2983 39.176L85.4423 35.384C83.6183 33.8 81.2903 32.84 78.4103 32.84C73.1063 32.84 69.1463 36.584 69.1463 41.6V41.648C69.1463 46.856 73.3463 50.36 78.5783 50.36ZM87.6721 50H93.2881V33.2H87.6721V50ZM99.5607 50H105.177V37.952H110.121V33.2H94.6167V37.952H99.5607V50Z" fill="white"/>
</svg>
