<svg width="180" height="180" viewBox="0 0 180 180" fill="none" xmlns="http://www.w3.org/2000/svg">
<path d="M90 0C40.5354 0 0 40.887 0 90.3516C0 139.529 40.166 180 90 180C139.772 180 180 139.59 180 90.3516C180 40.887 139.465 0 90 0ZM105.82 167.871C100.758 168.926 95.3792 169.453 90 169.453C84.6208 169.453 79.2416 168.926 74.1797 167.871V143.192C74.1797 137.285 75.7617 135.176 77.8711 132.328C78.945 131.1 79.5932 129.998 84.4093 122.731L76.2891 121.465C55.4054 118.407 47.1794 107.542 43.9096 99.1049C39.6909 87.8206 41.906 73.6867 49.5003 64.7232C50.6607 63.3513 51.6096 61.0304 50.7664 58.6052C49.183 53.7534 49.3945 46.0547 50.4492 43.1007C56.0413 43.9 61.7912 47.9059 66.5868 50.8008C68.7964 52.0903 69.9554 51.7497 71.0156 51.8555C74.8691 51.0535 80.88 49.113 90.1057 49.113C95.8008 49.113 101.813 49.9562 107.72 51.644C108.776 51.6193 110.473 52.5174 113.415 50.8008C118.427 47.7466 123.982 43.878 129.551 43.1007C130.605 46.0547 130.817 53.7534 129.235 58.6052C128.39 61.0304 129.339 63.3513 130.501 64.7232C138.094 73.688 140.309 87.8206 136.09 99.1049C132.821 107.542 124.595 118.407 103.711 121.465L95.5907 122.731C100.569 130.243 101.093 131.144 102.13 132.328C104.238 135.176 105.82 137.285 105.82 143.192V167.871ZM116.367 164.813V143.192C116.367 137.179 115.101 133.172 113.413 130.218C129.445 125.895 140.836 116.402 145.898 102.796C151.278 88.4537 148.852 71.3672 139.886 59.5541C141.47 52.4886 141.47 41.2029 137.672 35.9294C135.985 33.6099 133.664 32.3438 130.711 32.3438C130.605 32.3438 130.605 32.3438 130.605 32.3438C122.428 32.7859 115.991 36.9044 109.09 41.0971C102.762 39.4093 96.3281 38.5661 89.8943 38.5661C83.356 38.5661 76.8164 39.5151 71.017 41.0971C63.7523 36.7163 57.3775 32.775 48.9729 32.3438C46.3362 32.3438 44.0154 33.6099 42.3276 35.9294C38.5318 41.2029 38.5318 52.4886 40.1138 59.5541C31.1476 71.3672 28.7224 88.558 34.1016 102.796C39.1635 116.402 50.555 125.895 66.5868 130.218C65.278 132.507 64.2426 135.461 63.8347 139.459C60.5965 140.576 57.7881 140.939 55.1761 140.172C52.4213 139.357 50.2748 137.519 48.4099 134.382C44.2213 127.345 37.0871 121.601 28.9641 122.348L29.8911 132.854C33.6525 132.509 37.3961 136.489 39.3407 139.769C42.5487 145.172 46.8704 148.715 52.1892 150.286C56.1374 151.449 59.7464 151.422 63.6328 150.592V164.813C32.9411 154.054 10.5469 124.735 10.5469 90.3516C10.5469 46.6878 46.3362 10.5469 90 10.5469C133.664 10.5469 169.453 46.6878 169.453 90.3516C169.453 124.735 147.059 154.054 116.367 164.813Z" fill="white"/>
</svg>
