<svg width="180" height="180" viewBox="0 0 180 180" fill="none" xmlns="http://www.w3.org/2000/svg">
<circle cx="90" cy="90" r="90" fill="#E44D26"/>
<path fill-rule="evenodd" clip-rule="evenodd" d="M51 57L58 136L90 145L122 136L129 57H51ZM65.5 73H114L113.5 82.5H76L77 92.5H112L109.5 122.5L90 128L70 122.5L68.5 107.5H78L79 114.5L90 118L101 114.5L102 102.5H68.5L65.5 73Z" fill="white"/>
<path d="M58 136L57.502 136.044L57.5324 136.388L57.8646 136.481L58 136ZM51 57V56.5H50.4537L50.502 57.0441L51 57ZM90 145L89.8646 145.481L90 145.519L90.1354 145.481L90 145ZM122 136L122.135 136.481L122.468 136.388L122.498 136.044L122 136ZM129 57L129.498 57.0441L129.546 56.5H129V57ZM114 73L114.499 73.0263L114.527 72.5H114V73ZM65.5 73V72.5H64.9466L65.0026 73.0506L65.5 73ZM113.5 82.5V83H113.974L113.999 82.5263L113.5 82.5ZM76 82.5V82H75.4475L75.5025 82.5498L76 82.5ZM77 92.5L76.5025 92.5498L76.5475 93H77V92.5ZM112 92.5L112.498 92.5415L112.543 92H112V92.5ZM109.5 122.5L109.636 122.981L109.969 122.887L109.998 122.542L109.5 122.5ZM90 128L89.8674 128.482L90.0017 128.519L90.1357 128.481L90 128ZM70 122.5L69.5025 122.55L69.5366 122.891L69.8674 122.982L70 122.5ZM68.5 107.5V107H67.9475L68.0025 107.55L68.5 107.5ZM78 107.5L78.495 107.429L78.4336 107H78V107.5ZM79 114.5L78.505 114.571L78.5494 114.881L78.8484 114.976L79 114.5ZM90 118L89.8484 118.476L90 118.525L90.1516 118.476L90 118ZM101 114.5L101.152 114.976L101.47 114.875L101.498 114.542L101 114.5ZM102 102.5L102.498 102.542L102.543 102H102V102.5ZM68.5 102.5L68.0026 102.551L68.0483 103H68.5V102.5ZM58.498 135.956L51.498 56.9559L50.502 57.0441L57.502 136.044L58.498 135.956ZM90.1354 144.519L58.1354 135.519L57.8646 136.481L89.8646 145.481L90.1354 144.519ZM121.865 135.519L89.8646 144.519L90.1354 145.481L122.135 136.481L121.865 135.519ZM128.502 56.9559L121.502 135.956L122.498 136.044L129.498 57.0441L128.502 56.9559ZM51 57.5H129V56.5H51V57.5ZM114 72.5H65.5V73.5H114V72.5ZM113.999 82.5263L114.499 73.0263L113.501 72.9737L113.001 82.4737L113.999 82.5263ZM76 83H113.5V82H76V83ZM77.4975 92.4502L76.4975 82.4502L75.5025 82.5498L76.5025 92.5498L77.4975 92.4502ZM112 92H77V93H112V92ZM109.998 122.542L112.498 92.5415L111.502 92.4585L109.002 122.458L109.998 122.542ZM90.1357 128.481L109.636 122.981L109.364 122.019L89.8643 127.519L90.1357 128.481ZM69.8674 122.982L89.8674 128.482L90.1326 127.518L70.1326 122.018L69.8674 122.982ZM68.0025 107.55L69.5025 122.55L70.4975 122.45L68.9975 107.45L68.0025 107.55ZM78 107H68.5V108H78V107ZM79.495 114.429L78.495 107.429L77.505 107.571L78.505 114.571L79.495 114.429ZM90.1516 117.524L79.1516 114.024L78.8484 114.976L89.8484 118.476L90.1516 117.524ZM100.848 114.024L89.8484 117.524L90.1516 118.476L101.152 114.976L100.848 114.024ZM101.502 102.458L100.502 114.458L101.498 114.542L102.498 102.542L101.502 102.458ZM68.5 103H102V102H68.5V103ZM65.0026 73.0506L68.0026 102.551L68.9974 102.449L65.9974 72.9494L65.0026 73.0506Z" fill="white"/>
<path d="M58.5 50V35.5H63V40.5H68V35.5H72.5V50H68V45H63V50H58.5Z" fill="white"/>
<path d="M75.5 40V35.5H88.5V40H84V50H79.5V40H75.5Z" fill="white"/>
<path d="M91 50V35.5H96L99 40.5L102.5 35.5H107.5V50H102.5V42.5L99 48L95 42.5V50H91Z" fill="white"/>
<path d="M110 50V35.5H114.5V45.5H121.5V50H110Z" fill="white"/>
<path d="M58.5 50V35.5H63V40.5H68V35.5H72.5V50H68V45H63V50H58.5Z" stroke="white"/>
<path d="M75.5 40V35.5H88.5V40H84V50H79.5V40H75.5Z" stroke="white"/>
<path d="M91 50V35.5H96L99 40.5L102.5 35.5H107.5V50H102.5V42.5L99 48L95 42.5V50H91Z" stroke="white"/>
<path d="M110 50V35.5H114.5V45.5H121.5V50H110Z" stroke="white"/>
</svg>
