<svg width="180" height="180" viewBox="0 0 180 180" fill="none" xmlns="http://www.w3.org/2000/svg">
<circle cx="90" cy="90" r="90" fill="#F7DF1E"/>
<path fill-rule="evenodd" clip-rule="evenodd" d="M18.3575 124.124L49.8021 77.8451L82.1673 134.28L20.1241 127.728C18.3873 127.538 17.4399 125.609 18.3575 124.124ZM42.6373 71.3199L20.2075 107.642C19.576 108.663 18 108.218 18 107.022V58.688C18 57.7647 19.0099 57.1948 19.8053 57.6698L42.6373 71.3199ZM81.3511 165.778L23.4369 139.755C22.2363 139.167 22.7666 137.359 24.0923 137.507L84.7324 144.128V163.623C84.7324 165.354 82.93 166.506 81.3511 165.778ZM71.4455 20.7924L47.6333 63.2272L23.3445 48.7725C22.5938 48.3213 22.57 47.2407 23.3058 46.7597L68.234 17.4853C70.376 16.2651 72.7384 18.6965 71.4455 20.7924ZM122.034 66.2493H89.499H56.964L85.4384 16.2622C86.3709 14.7541 87.9349 14 89.499 14C91.063 14 92.627 14.7541 93.5595 16.2622L122.034 66.2493ZM136.361 71.3228L159.193 57.6698C159.988 57.1948 160.998 57.7647 160.998 58.688V107.022C160.998 108.221 159.419 108.666 158.79 107.645L136.361 71.3228ZM155.653 48.7696L131.365 63.2272L107.552 20.7924C106.26 18.6965 108.622 16.2651 110.764 17.4853L155.692 46.7568C156.428 47.2377 156.407 48.3183 155.653 48.7696ZM94.2656 144.125L154.906 137.507C156.231 137.359 156.762 139.167 155.561 139.752L97.6469 165.775C96.0679 166.503 94.2656 165.354 94.2656 163.62V144.125ZM96.8336 134.28L129.196 77.8451L160.643 124.124C161.561 125.609 160.614 127.535 158.877 127.728L96.8336 134.28ZM59.5796 75.7492H89.499H119.418L89.499 127.924L59.5796 75.7492ZM88.9464 99.016C88.6744 98.856 88.2104 98.776 87.5544 98.776H83.1624V98.656L83.7624 98.416C84.6904 98.048 85.7464 97.336 86.9304 96.28C87.4904 95.784 87.9704 95.128 88.3704 94.312C88.7704 93.496 88.9704 92.632 88.9704 91.72C88.9704 90.008 88.3704 88.488 87.1704 87.16C85.9704 85.816 84.4024 85.144 82.4664 85.144C80.5464 85.144 78.9864 85.808 77.7864 87.136C76.6024 88.448 76.0104 89.936 76.0104 91.6C76.0104 92.16 76.0504 92.568 76.1304 92.824C76.3384 93.432 77.0024 93.736 78.1224 93.736C79.1304 93.736 79.7544 93.544 79.9944 93.16C80.1224 92.936 80.1944 92.736 80.2104 92.56C80.2424 92.384 80.2584 92.12 80.2584 91.768V91.624L80.3544 91.072C80.4024 90.704 80.6104 90.336 80.9784 89.968C81.3624 89.584 81.8104 89.392 82.3224 89.392C82.8344 89.392 83.2344 89.464 83.5224 89.608C83.8104 89.752 84.0184 89.912 84.1464 90.088C84.2904 90.248 84.4184 90.464 84.5304 90.736C84.6424 90.992 84.6984 91.192 84.6984 91.336C84.6984 92.056 84.3944 92.736 83.7864 93.376C83.1944 94.016 82.4744 94.592 81.6264 95.104C80.7784 95.6 79.9304 96.112 79.0824 96.64C78.2344 97.152 77.5064 97.776 76.8984 98.512C76.3064 99.232 76.0104 100.024 76.0104 100.888C76.0104 101.464 76.2184 101.968 76.6344 102.4C77.0504 102.832 77.5464 103.048 78.1224 103.048H87.5064C88.1464 103.048 88.6424 102.952 88.9944 102.76C89.2344 102.648 89.4024 102.44 89.4984 102.136C89.6104 101.832 89.6664 101.432 89.6664 100.936C89.6664 100.424 89.6184 100.016 89.5224 99.712C89.4264 99.392 89.2344 99.16 88.9464 99.016ZM94.4034 85.816C93.5714 86.248 92.9234 86.792 92.4594 87.448C91.9954 88.088 91.5714 88.976 91.1874 90.112C90.8194 91.248 90.6354 92.616 90.6354 94.216C90.6354 95.96 90.8674 97.52 91.3314 98.896C91.6354 99.76 92.0194 100.504 92.4834 101.128C92.9634 101.752 93.6194 102.28 94.4514 102.712C95.2994 103.128 96.2674 103.336 97.3554 103.336C98.4434 103.336 99.3954 103.128 100.211 102.712C101.043 102.296 101.691 101.768 102.155 101.128C103.403 99.432 104.027 97.136 104.027 94.24C104.027 92.624 103.787 91.096 103.307 89.656C103.019 88.792 102.635 88.04 102.155 87.4C101.691 86.76 101.043 86.224 100.211 85.792C99.3954 85.36 98.4354 85.144 97.3314 85.144C96.2274 85.144 95.2514 85.368 94.4034 85.816ZM99.7794 94.36C99.7794 97.496 98.9554 99.064 97.3074 99.064C95.6914 99.064 94.8834 97.456 94.8834 94.24C94.8834 91.008 95.6994 89.392 97.3314 89.392C98.9634 89.392 99.7794 91 99.7794 94.216V94.36Z" fill="white"/>
</svg>
