<svg width="180" height="180" viewBox="0 0 180 180" fill="none" xmlns="http://www.w3.org/2000/svg">
<circle cx="90" cy="90" r="90" fill="#8CC64C"/>
<path d="M121.65 61.8378C118.16 60.9302 114.574 60.7073 110.991 61.1698C107.276 61.6525 103.735 62.8535 100.463 64.7427L56.2086 90.2929C52.9373 92.1816 50.1254 94.6472 47.8522 97.623C45.6587 100.494 44.0593 103.712 43.1001 107.189C42.1394 110.665 41.8675 114.227 42.2869 117.778C42.7233 121.457 43.887 124.958 45.7462 128.178C47.6074 131.402 50.0539 134.158 53.0237 136.375C55.8882 138.514 59.1088 140.057 62.6013 140.966C66.0913 141.873 69.6772 142.096 73.2606 141.632C76.9742 141.149 80.5166 139.95 83.7879 138.062C87.6113 135.854 90.9022 132.755 93.3037 129.093C94.9173 126.636 96.1392 123.917 96.9142 121.085L106.775 115.392C109.616 116.136 112.583 116.437 115.516 116.269C119.888 116.018 124.219 114.719 128.04 112.513C131.312 110.623 134.122 108.156 136.397 105.18C138.59 102.31 140.188 99.0929 141.148 95.6171C142.107 92.1389 142.382 88.5768 141.96 85.027C141.524 81.3479 140.361 77.8495 138.5 74.6267C136.64 71.4047 134.194 68.6468 131.224 66.4304C128.363 64.29 125.142 62.7449 121.65 61.8378ZM124.426 106.248C118.575 109.626 111.779 109.858 106.044 107.462L90.4141 116.486C89.6213 122.651 86.0238 128.419 80.1717 131.798C70.2917 137.502 57.7287 134.239 52.1096 124.507C46.4915 114.776 49.9469 102.262 59.8259 96.5583L104.08 71.0081C113.962 65.3028 126.527 68.5673 132.145 78.2981C137.762 88.0308 134.308 100.543 124.426 106.248Z" fill="white"/>
<path d="M120.356 99.1982C122.331 98.0576 123.022 95.5556 121.899 93.6099C120.775 91.6641 118.263 91.0115 116.288 92.1521C114.312 93.2926 113.621 95.7946 114.744 97.7404C115.868 99.6861 118.38 100.339 120.356 99.1982Z" fill="white"/>
<path d="M123.444 88.019C125.42 86.8781 126.111 84.3755 124.988 82.4292C123.864 80.483 121.351 79.8301 119.375 80.971C117.399 82.1119 116.708 84.6145 117.831 86.5608C118.955 88.507 121.468 89.1599 123.444 88.019Z" fill="white"/>
<path d="M109.133 96.2816C111.109 95.1407 111.8 92.6381 110.676 90.6919C109.552 88.7456 107.039 88.0927 105.063 89.2336C103.087 90.3745 102.396 92.8772 103.52 94.8234C104.644 96.7696 107.156 97.4225 109.133 96.2816Z" fill="white"/>
<path d="M112.217 85.1032C114.193 83.9626 114.884 81.4606 113.76 79.5149C112.637 77.5691 110.125 76.9164 108.149 78.057C106.174 79.1976 105.483 81.6996 106.606 83.6453C107.73 85.5911 110.242 86.2438 112.217 85.1032Z" fill="white"/>
<path d="M76.9085 105.489L71.5415 108.588L68.4907 103.303C67.9294 102.331 66.6723 102.004 65.6853 102.574L62.1073 104.639C61.1194 105.21 60.7738 106.461 61.3355 107.434L64.3863 112.719L59.0202 115.817C58.0323 116.387 57.6877 117.638 58.25 118.612L60.2845 122.136C60.8463 123.109 62.1035 123.436 63.0904 122.866L68.4565 119.768L71.5074 125.052C72.0696 126.026 73.3257 126.352 74.3137 125.782L77.8917 123.716C78.8796 123.145 79.2253 121.896 78.6625 120.921L75.6117 115.637L80.9787 112.539C81.9666 111.968 82.3122 110.717 81.7499 109.743L79.7153 106.219C79.1531 105.245 77.8955 104.919 76.9085 105.489Z" fill="white"/>
<path d="M84.8116 58.3697L101.892 48.5082C110.895 43.3104 114.055 31.8676 108.936 23L102.574 26.6728C105.7 32.086 103.77 39.0715 98.2746 42.2442L81.1949 52.1052C72.1912 57.3035 69.0318 68.7458 74.1515 77.6134L80.512 73.9412C77.3863 68.5294 79.3163 61.5424 84.8116 58.3697Z" fill="white"/>
</svg>
