<svg width="180" height="180" viewBox="0 0 180 180" fill="none" xmlns="http://www.w3.org/2000/svg">
<circle cx="90" cy="90" r="90" fill="#F7DF1E"/>
<path fill-rule="evenodd" clip-rule="evenodd" d="M75.0877 41.3881H87.4702V24H82.728V36.6459H75.0877V41.3881ZM90.1047 24V34.5382H101.96V36.9093H90.1047V41.3881H106.439V30.5864H94.5835V28.4788H106.439V24H90.1047ZM52.1671 144.663L44 49.8187H137L128.833 144.663L90.6317 155.465L52.1671 144.663ZM76.6685 121.479V69.3145H86.9432V134.915L58.7534 127.275V116.737H59.0169L76.6685 121.479ZM123.3 69.3145H94.32V109.096L110.918 106.725L109.337 120.161L94.32 124.377V134.915L118.295 128.329L121.193 95.1332L104.331 97.636V79.3258H122.51L123.3 69.3145Z" fill="white"/>
</svg>
