<svg width="180" height="180" viewBox="0 0 180 180" fill="none" xmlns="http://www.w3.org/2000/svg">
<path d="M153.633 0H26.3672C11.8282 0 0 11.8282 0 26.3672V153.633C0 168.172 11.8282 180 26.3672 180H153.633C168.172 180 180 168.172 180 153.633V26.3672C180 11.8282 168.172 0 153.633 0ZM169.453 153.633C169.453 162.356 162.356 169.453 153.633 169.453H26.3672C17.644 169.453 10.5469 162.356 10.5469 153.633V26.3672C10.5469 17.644 17.644 10.5469 26.3672 10.5469H153.633C162.356 10.5469 169.453 17.644 169.453 26.3672V153.633Z" fill="white"/>
<path d="M31.9922 148.359H63.6328V73.8281H31.9922V148.359ZM42.5391 84.375H53.0859V137.812H42.5391V84.375Z" fill="white"/>
<path d="M116.397 73.8281C116.388 73.8281 116.377 73.8281 116.367 73.8281C112.721 73.8281 109.17 74.4379 105.82 75.6216V73.8281H74.1797V148.359H105.82V110.742C105.82 107.835 108.186 105.469 111.094 105.469C114.001 105.469 116.367 107.835 116.367 110.742V148.359H148.008V107.117C148.008 90.0494 134.162 73.8446 116.397 73.8281ZM137.461 137.812H126.914V110.742C126.914 102.019 119.817 94.9219 111.094 94.9219C102.371 94.9219 95.2748 102.019 95.2734 110.741V137.812H84.7266V84.375H95.2734V94.9287L103.714 88.5896C107.384 85.8321 111.76 84.375 116.367 84.375H116.388C127.613 84.386 137.461 95.0125 137.461 107.117V137.812Z" fill="white"/>
<path d="M31.9922 63.2812H63.6328V31.6406H31.9922V63.2812ZM42.5391 42.1875H53.0859V52.7344H42.5391V42.1875Z" fill="white"/>
</svg>
