<svg width="180" height="180" viewBox="0 0 180 180" fill="none" xmlns="http://www.w3.org/2000/svg">
<circle cx="90" cy="90" r="90" fill="#FF9900"/>
<path d="M34.4213 44H43.4293V40.8H38.1653V32.8H34.4213V44ZM44.2814 44H48.0254V32.8H44.2814V44ZM49.3431 44H53.0551V38.832L57.2151 44H60.5431V32.8H56.8311V37.744L52.8471 32.8H49.3431V44ZM67.2355 44.224C70.5795 44.224 72.8035 42.72 72.8035 38.896V32.8H68.9955V39.008C68.9955 40.368 68.2755 40.912 67.2675 40.912C66.2595 40.912 65.5395 40.32 65.5395 38.928V32.8H61.7315V38.976C61.7315 42.688 63.8915 44.224 67.2355 44.224ZM73.0435 44H77.2195L79.0115 41.088L80.7875 44H85.0435L81.2515 38.256L84.8835 32.8H80.7075L79.0755 35.472L77.4595 32.8H73.2035L76.8355 38.304L73.0435 44ZM88.7927 44H92.7928L93.3688 42.496H97.2888L97.8808 44H101.945L97.2248 32.72H93.5128L88.7927 44ZM94.3128 39.84L95.3368 37.12L96.3608 39.84H94.3128ZM102.406 44H106.566C111.094 44 113.366 41.648 113.366 38.336V38.304C113.366 34.992 111.142 32.8 106.694 32.8H102.406V44ZM106.15 40.736V36.064H106.774C108.486 36.064 109.59 36.768 109.59 38.384V38.416C109.59 40.032 108.486 40.736 106.774 40.736H106.15ZM114.39 44H118.054V38.448L120.63 42.432H120.694L123.27 38.448V44H126.998V32.8H123.094L120.694 36.736L118.294 32.8H114.39V44ZM128.313 44H132.057V32.8H128.313V44ZM133.374 44H137.086V38.832L141.246 44H144.574V32.8H140.862V37.744L136.878 32.8H133.374V44Z" fill="white"/>
<g clip-path="url(#clip0)">
<path d="M132.045 143.895C129.478 141.814 130.477 137.217 127.812 134.949C130.393 119.246 123.159 105.405 114.535 96.5333C107.297 89.09 109.631 81.8473 109.631 75.58C109.631 65.5653 105.519 55 93.064 55C79.75 55 76.1007 66.1067 75.97 72.444C75.6527 87.6667 79.0453 91.624 70.1367 102.703C59.6553 115.737 58.1107 128.738 60.4767 135.635C59.3707 136.923 57.8773 138.351 55.0867 139.532C47.3773 142.892 53.0287 148.515 50.896 152.505C50.2893 153.639 50 154.825 50 155.959C50 159.459 52.7813 162.487 57.8353 162.035C64.6533 161.428 70.944 166.258 75.0133 166.258C78.6067 166.258 81.556 164.214 82.928 161.4C89.354 159.818 97.2873 160.019 103.709 161.675C104.861 164.9 107.988 167 111.465 167C119.076 167 120.541 158.371 129.273 155.45C132.418 154.4 134 151.348 134 148.506C134 146.686 133.351 144.955 132.045 143.895ZM89.3587 95.0587C87.87 95.0587 86.638 93.8547 84.692 92.408C82.228 90.5787 79.722 89.524 79.75 87.6013C79.75 86.2807 81.5187 85.8747 83.8053 84.4233C86.26 82.8693 87.2167 81.292 89.634 81.292C92.1073 81.292 92.854 82.5427 96.214 83.994C99.518 85.4267 101.819 85.9867 101.819 87.6013C101.819 89.258 98.3607 90.4433 96.4147 91.652C93.554 93.416 92.084 95.0587 89.3587 95.0587ZM97.1287 70.722C101.245 71.38 101.707 78.6133 99.7373 82.174L98.0807 81.4973C98.9393 78.9633 98.9253 74.7913 96.0507 74.5253C94.226 74.3573 93.05 76.7653 92.798 78.828C92.084 78.5293 91.3047 78.3147 90.3573 78.2353C90.6467 73.928 93.428 70.1293 97.1287 70.722ZM81.248 72.2667C84.4027 71.4827 86.2647 75.1507 86.2787 78.9633L84.832 79.85C84.636 78.2493 83.922 75.664 82.13 76.2147C80.212 76.812 80.5247 81.2687 81.5933 82.1833L80.1653 82.9767C78.2053 79.6773 78.21 73.0227 81.248 72.2667ZM71.378 162.067C62.2173 157.9 59.1047 158.847 57.3547 158.847C53.7287 158.847 52.5433 156.145 53.906 153.588C55.0633 151.418 54.704 149.145 54.4193 147.321C53.9807 144.525 53.9013 143.615 56.65 142.411C60.4533 140.797 62.1427 138.72 63.4027 137.166C66.94 132.793 70.51 139.672 73.436 145.799C75.3353 149.771 79.0733 151.782 80.226 156.183C81.2853 160.247 76.9127 164.587 71.378 162.067ZM103.984 153.322C97.5253 156.463 89.298 157.905 83.1427 154.717C82.2327 152.09 80.7767 150.391 79.2087 148.683C81.724 148.021 83.5907 144.885 81.3553 141.735C78.9707 138.37 74.0987 136.023 69.1753 132.215C64.5693 128.654 63.1133 119.876 69.3853 110.067C66.3287 118.756 68.116 126.764 69.6513 129.055C69.9687 124.445 70.3327 116.745 76.6327 107.519C79.8107 102.861 79.8573 96.7107 79.9273 92.8653L82.8207 94.844C84.9487 96.4167 86.7313 98.148 89.2887 98.148C93.0687 98.148 95.1593 95.9733 98.0713 94.1673C99.21 93.4673 100.932 92.758 102.379 91.7733C104.805 103.328 114.857 117.225 115.422 125.14C117.76 120.324 114.759 108.741 114.759 108.741C118.689 114.738 119.001 119.736 119.174 125.868C121.923 126.993 124.872 129.923 125.143 133.783L123.999 133.652C123.411 129.363 111.833 123.063 110.793 131.137C105.239 131.981 107.26 140.778 106.14 146.481C105.627 149.089 104.675 151.152 103.984 153.322ZM126.599 153.131C122.002 154.904 118.899 158.67 116.766 161.008C112.659 165.516 107.227 163.355 106.649 159.137C106.037 154.629 108.329 152.169 109.318 147.125C110.219 142.519 109.211 135.43 111.329 134.674C112.706 142.855 120.971 139.415 122.856 137.185C125.922 137.185 126.179 138.221 126.865 141.091C127.294 142.887 127.887 144.399 129.562 146.177C131.513 148.263 130.915 151.465 126.599 153.131ZM89.2653 92.436C86.2273 92.436 83.9547 90.4153 82.1067 88.8473C81.1593 88.0493 82.34 86.5747 83.2873 87.3773C85.0933 88.908 86.9133 90.5273 89.2653 90.5273C92.098 90.5273 94.5947 88.1053 97.978 86.7707C99.1307 86.318 99.7887 88.1007 98.6453 88.5533C95.36 89.846 92.7233 92.436 89.2653 92.436Z" fill="white"/>
</g>
<defs>
<clipPath id="clip0">
<rect width="112" height="112" fill="white" transform="translate(36 55)"/>
</clipPath>
</defs>
</svg>
