<svg width="180" height="180" viewBox="0 0 180 180" fill="none" xmlns="http://www.w3.org/2000/svg">
<circle cx="90" cy="90" r="90" fill="#1D91B4"/>
<path d="M47.5095 44.0004C47.5063 44.0004 47.5026 44.0004 47.4994 44.0004C46.3549 44.0004 45.2786 44.4465 44.4658 45.2573C43.644 46.077 43.1914 47.1684 43.1914 48.3304V113.257C43.1914 115.638 45.136 117.58 47.5266 117.586C57.6051 117.61 74.4906 119.711 86.1393 131.901V63.9529C86.1393 63.1458 85.9331 62.3876 85.544 61.7602C75.9834 46.3634 57.6108 44.0241 47.5095 44.0004Z" fill="white"/>
<path d="M135.809 113.257V48.3299C135.809 47.168 135.356 46.0766 134.534 45.2569C133.722 44.4461 132.644 44 131.501 44C131.498 44 131.494 44 131.491 44C121.39 44.024 103.017 46.3634 93.4561 61.7602C93.0671 62.3876 92.8613 63.1458 92.8613 63.9529V131.9C104.51 119.71 121.395 117.609 131.474 117.585C133.864 117.579 135.809 115.638 135.809 113.257Z" fill="white"/>
<path d="M145.671 58.9735H142.531V113.257C142.531 119.336 137.579 124.293 131.49 124.308C122.942 124.328 108.846 126 98.8633 135.448C116.128 131.221 134.329 133.969 144.702 136.333C145.997 136.628 147.335 136.323 148.373 135.496C149.407 134.671 150 133.438 150 132.114V63.3026C150 60.9156 148.058 58.9735 145.671 58.9735Z" fill="white"/>
<path d="M36.4686 113.257V58.9735H33.3291C30.9425 58.9735 29 60.9156 29 63.3026V132.113C29 133.437 29.5932 134.67 30.6272 135.495C31.664 136.321 33.0012 136.627 34.2984 136.332C44.671 133.967 62.872 131.22 80.1364 135.447C70.154 125.999 56.0585 124.328 47.5098 124.308C41.4219 124.293 36.4686 119.336 36.4686 113.257Z" fill="white"/>
</svg>
