<svg width="229" height="180" viewBox="0 0 229 180" fill="none" xmlns="http://www.w3.org/2000/svg">
<g clip-path="url(#clip0)">
<path d="M201.044 -0.650665H28.0031C12.5564 -0.650665 0 12.4121 0 28.4818V151.518C0 167.588 12.5564 180.651 28.0031 180.651H200.997C216.444 180.651 229 167.588 229 151.518V28.5311C229.047 12.4614 216.491 -0.650665 201.044 -0.650665ZM216.254 151.518C216.254 160.243 209.431 167.341 201.044 167.341H28.0031C19.6164 167.341 12.7933 160.243 12.7933 151.518V28.5311C12.7933 19.8061 19.6164 12.7079 28.0031 12.7079H200.997C209.384 12.7079 216.207 19.8061 216.207 28.5311V151.518H216.254Z" fill="white"/>
<path d="M144.422 88.4719L200.428 36.2209C203.034 33.7562 203.271 29.5662 200.902 26.8058C198.533 24.0947 194.506 23.8482 191.852 26.3129L114.619 98.4292L99.5509 84.4299C99.5035 84.3806 99.4561 84.3313 99.4561 84.282C99.1244 83.9369 98.7928 83.6412 98.4137 83.3454L37.1006 26.2636C34.4472 23.7989 30.4197 24.0454 28.0506 26.8058C25.6814 29.5662 25.9183 33.7562 28.5718 36.2209L85.2413 88.9156L28.8087 143.878C26.25 146.392 26.1079 150.582 28.5244 153.293C29.8037 154.673 31.5095 155.412 33.2153 155.412C34.7789 155.412 36.3425 154.821 37.5745 153.638L94.86 97.887L110.401 112.33C111.633 113.464 113.15 114.006 114.666 114.006C116.182 114.006 117.746 113.414 118.93 112.281L134.898 97.394L191.852 153.687C193.084 154.92 194.695 155.511 196.259 155.511C197.965 155.511 199.623 154.821 200.902 153.441C203.319 150.779 203.224 146.54 200.665 144.026L144.422 88.4719Z" fill="white"/>
</g>
<defs>
<clipPath id="clip0">
<rect width="229" height="180" fill="white"/>
</clipPath>
</defs>
</svg>
