<svg width="180" height="180" viewBox="0 0 180 180" fill="none" xmlns="http://www.w3.org/2000/svg">
<circle cx="90" cy="90" r="90" fill="#4FAA41"/>
<path fill-rule="evenodd" clip-rule="evenodd" d="M109.241 99.131C106.637 91.023 102.46 83.847 96.5743 77.672C95.0863 76.11 93.4323 74.679 92.3943 72.736C91.7383 71.506 91.1133 70.259 90.4743 69.021L90.0683 68L89.9553 68.402C89.9023 70.422 88.7583 71.791 87.3343 73.07C85.7303 74.508 84.2383 76.07 82.6983 77.579L77.9623 83.808L74.1333 90.85L71.5723 97.765L71.4953 97.872C70.0863 102.501 69.3913 107.261 69.0503 112.067C68.9213 113.874 69.0693 115.706 69.1703 117.522C69.3153 120.118 69.7663 122.669 70.4423 125.182C72.8993 134.308 77.8863 141.877 84.7053 148.309C85.9713 149.504 87.3403 150.591 88.6613 151.727L89.2463 153.735L89.7903 156.851L90.0503 160.104C90.0473 160.764 90.0203 161.427 90.0593 162.085C90.0703 162.254 90.2903 162.41 90.4143 162.572L91.5183 162.96L92.6673 163.407L92.4703 160.516L92.4613 157.668L92.8583 153.33L93.1463 152.386L93.9713 150.925C94.9893 150.107 96.0803 149.363 97.0073 148.452C98.6843 146.805 100.358 145.135 101.859 143.33C103.812 140.99 105.48 138.427 106.828 135.694C107.727 133.861 108.575 131.991 109.276 130.076C109.894 128.388 110.277 126.613 110.764 124.876L110.892 124.501C111.897 119.813 112.066 115.077 111.697 110.311C111.4 106.47 110.497 102.763 109.241 99.131ZM89.3413 149.406C89.4953 148.635 89.6863 147.868 89.8253 147.094C89.6863 147.868 89.4963 148.635 89.3413 149.406Z" fill="white"/>
<path fill-rule="evenodd" clip-rule="evenodd" d="M129.268 33.0136C130.87 33.8026 132.082 35.0046 132.908 36.5876C133.427 37.5918 133.751 38.6855 133.862 39.8106C134.04 41.4616 133.923 43.0726 133.399 44.6516C132.75 46.6066 131.52 48.1046 129.81 49.2256C128.492 50.0886 127.048 50.5986 125.501 50.8896C124.201 51.135 122.897 51.1224 121.592 51.1098C121.254 51.1066 120.916 51.1033 120.578 51.1046C119.312 51.1088 118.046 51.0908 116.779 51.0728L116.779 51.0727L116.778 51.0727L116.777 51.0727L116.776 51.0727L116.775 51.0727L116.774 51.0727L116.773 51.0727L116.772 51.0727L116.771 51.0727L116.77 51.0726L116.769 51.0726L116.768 51.0726C116.237 51.065 115.705 51.0575 115.174 51.0516C114.86 51.0486 114.815 50.9896 114.899 50.6886L114.975 50.4126C115.15 49.8606 115.244 49.8356 115.805 49.7436C116.202 49.6805 116.581 49.5358 116.92 49.3186C117.092 49.2049 117.173 48.9213 117.241 48.6807L117.26 48.6166C117.323 48.3986 117.327 48.1566 117.329 47.9246C117.355 44.4116 117.38 40.8976 117.395 37.3836C117.398 36.4956 117.378 35.6076 117.328 34.7216C117.294 34.0996 116.962 33.6756 116.224 33.5286C115.85 33.4536 115.473 33.3906 115.096 33.3275C114.895 33.2938 114.694 33.2601 114.493 33.2246L114.299 33.1626C114.355 33.0541 114.41 32.9499 114.465 32.8481C114.577 32.6365 114.684 32.4355 114.78 32.2296C114.87 32.0336 115.007 31.9946 115.2 32.0006L115.479 32.0085C116.549 32.039 117.619 32.0695 118.689 32.0806C119.518 32.0881 120.349 32.0774 121.179 32.0666L121.657 32.0606C122.019 32.056 122.383 32.0469 122.746 32.0378C123.497 32.0189 124.249 32 124.999 32.0216C126.483 32.0636 127.926 32.3536 129.268 33.0136ZM148.839 40.7606C150.058 41.2606 151.028 42.0416 151.54 43.2876C151.947 44.2716 151.946 45.2966 151.706 46.3156C151.332 47.9116 150.28 48.9726 148.913 49.7776C147.629 50.5326 146.24 50.9716 144.761 51.0456C143.814 51.0941 142.866 51.096 141.917 51.0979C141.497 51.0988 141.077 51.0997 140.657 51.1046L139.864 51.1076L135.911 51.0106L135.79 50.9776C135.766 50.5516 135.94 50.1986 136.156 49.8756C136.197 49.8127 136.316 49.7979 136.431 49.7836C136.473 49.7783 136.515 49.7731 136.553 49.7656L137.73 49.5336C138.146 49.4456 138.363 49.1656 138.422 48.7596C138.461 48.4906 138.498 48.2186 138.501 47.9476C138.528 45.7956 138.549 43.6436 138.562 41.4916C138.568 39.9258 138.566 38.3601 138.564 36.7944V36.7902C138.564 36.2023 138.563 35.6144 138.563 35.0266L138.554 34.6156C138.512 33.9226 138.179 33.5646 137.491 33.4616C137.293 33.4322 137.095 33.401 136.898 33.3699C136.598 33.3227 136.299 33.2755 136 33.2346C135.815 33.2106 135.749 33.1216 135.816 32.9596C135.832 32.9195 135.849 32.8793 135.865 32.839L135.866 32.837C135.964 32.5981 136.063 32.357 136.203 32.1436C136.262 32.0516 136.467 32.0166 136.605 32.0186C136.92 32.023 137.236 32.0359 137.551 32.0488C137.948 32.0649 138.344 32.0811 138.741 32.0806C139.737 32.0786 140.733 32.0704 141.729 32.0622C142.8 32.0534 143.87 32.0446 144.94 32.0436C146.134 32.0426 147.288 32.2506 148.358 32.8206C149.537 33.4506 150.197 34.4216 150.385 35.7446C150.583 37.1356 150.161 38.3066 149.145 39.2376C148.857 39.5011 148.512 39.7022 148.166 39.9033L148.166 39.9033C148.009 39.9944 147.853 40.0856 147.702 40.1826L147.545 40.2826C147.697 40.3387 147.846 40.392 147.994 40.4446L147.995 40.4451L147.996 40.4456L147.997 40.4456C148.284 40.5481 148.564 40.6478 148.839 40.7606ZM49.7156 48.6786L49.7346 43.2416C49.7376 42.4236 49.6336 41.6216 49.3656 40.8456C48.6266 38.7086 46.5886 37.7356 44.4666 38.5026C43.5016 38.8516 42.6366 39.3806 41.8106 39.9806C41.3296 40.3306 41.3296 40.3306 40.9816 39.8316C39.9966 38.4196 38.5896 37.9366 36.9516 38.4576C35.8926 38.7936 34.9666 39.3686 34.0896 40.0366C34.0076 40.0986 33.8426 40.1676 33.7936 40.1306C33.7116 40.0696 33.6546 39.9246 33.6566 39.8156L33.7166 38.8496C33.72 38.7104 33.7028 38.5707 33.6851 38.428V38.428V38.428V38.428V38.428V38.428V38.428V38.428V38.428V38.428V38.428L33.6851 38.428L33.6851 38.4279L33.6851 38.4279L33.6851 38.4279L33.6851 38.4279L33.6851 38.4279C33.6771 38.3625 33.6689 38.2965 33.6626 38.2296C33.5355 38.2736 33.4165 38.3176 33.3027 38.3597L33.3027 38.3597L33.3027 38.3597L33.3027 38.3597C33.0621 38.4487 32.8443 38.5293 32.6196 38.5836C31.7959 38.7849 30.9677 38.9732 30.1391 39.1616L30.1391 39.1616L30.1389 39.1617L30.1387 39.1617L30.1385 39.1617L30.1382 39.1618C29.938 39.2073 29.7378 39.2529 29.5376 39.2986C29.2886 39.3556 29.0256 39.4306 29.0016 39.7166C28.9803 39.9561 29.1741 40.0256 29.3618 40.0929C29.3943 40.1046 29.4266 40.1162 29.4576 40.1286C29.8996 40.3066 30.3386 40.4956 30.7756 40.6876C31.1426 40.8496 31.2796 41.1426 31.2776 41.5366C31.2744 42.3143 31.275 43.0915 31.2756 43.8688V43.8688V43.8688V43.8688V43.8688V43.8689V43.8689V43.8689V43.8689V43.8689V43.8689C31.2763 44.7756 31.277 45.6823 31.2716 46.5896C31.2678 47.2499 31.2379 47.9094 31.208 48.5697L31.2046 48.6436C31.1766 49.2506 30.9696 49.5046 30.3816 49.6576C30.1981 49.7058 30.0128 49.7447 29.8274 49.7836C29.6976 49.8109 29.5679 49.8381 29.4386 49.8686C29.3696 49.8846 29.2516 49.9286 29.2506 49.9626L29.2491 49.9978C29.2364 50.2836 29.2236 50.575 29.2716 50.8526C29.2787 50.8896 29.4397 50.9002 29.5946 50.9105L29.5947 50.9105C29.6576 50.9147 29.7194 50.9188 29.7696 50.9246L29.8866 50.9176L30.4034 50.9099L30.405 50.9098L30.4052 50.9098C31.4444 50.8943 32.4836 50.8787 33.5236 50.8676C33.9599 50.8628 34.3958 50.8641 34.849 50.8653H34.8493H34.8498H34.8502H34.8507H34.8512H34.8516H34.8521H34.8526H34.8531H34.8536H34.8541C35.0671 50.8659 35.284 50.8666 35.5066 50.8666L35.5816 49.8966C35.4557 49.8736 35.334 49.8524 35.2155 49.8317C34.9573 49.7868 34.7138 49.7443 34.4726 49.6916C33.9236 49.5716 33.6896 49.2806 33.6756 48.7266L33.6656 47.9336L33.6618 46.6984L33.6618 46.6977C33.6567 45.0529 33.6516 43.4086 33.6516 41.7636C33.6516 41.4646 33.7756 41.2276 34.0386 41.0486C34.5956 40.6726 35.1836 40.3736 35.8346 40.2066C37.2066 39.8556 38.3966 40.3436 38.9246 41.5106C39.0916 41.8786 39.2226 42.2856 39.2596 42.6856C39.4536 44.7476 39.3696 46.8116 39.2526 48.8736C39.2276 49.3186 39.0186 49.5426 38.5796 49.6516L37.5476 49.8696C37.5151 49.8778 37.4768 49.8742 37.4419 49.871C37.3875 49.8659 37.3413 49.8616 37.3376 49.9036C37.3146 50.1886 37.3276 50.6256 37.3276 50.6256H37.5736L40.7156 50.7286C41.2012 50.7274 41.6871 50.76 42.1728 50.7926H42.1729H42.1729H42.1729H42.1729H42.1729H42.173H42.173H42.173H42.173H42.173L42.1731 50.7926C42.5485 50.8178 42.9237 50.843 43.2986 50.8526C43.3132 50.8529 43.3276 50.8533 43.3417 50.8538C43.4774 50.8581 43.5905 50.8618 43.5986 50.7006C43.6084 50.4242 43.6048 50.1476 43.5876 49.8716L43.4236 49.8426L42.5386 49.6436C41.9416 49.5026 41.7356 49.2756 41.7336 48.6716C41.7305 48.0022 41.7328 47.333 41.7351 46.6639V46.6637V46.6635V46.6632V46.663V46.6628V46.6626V46.6624V46.6622V46.662V46.6618C41.7379 45.8433 41.7408 45.0249 41.7336 44.2066C41.726 43.3555 41.6943 42.5048 41.6386 41.6556C41.6236 41.4296 41.6586 41.2816 41.8386 41.1546C42.3603 40.7732 42.9473 40.4902 43.5706 40.3196C45.5056 39.8096 47.0896 40.8706 47.1896 42.8656C47.2722 44.4865 47.2561 46.1125 47.24 47.7374L47.24 47.7379L47.24 47.7385L47.24 47.7391L47.24 47.7397L47.24 47.7403L47.24 47.7408L47.24 47.7413L47.2399 47.7418L47.2399 47.7422L47.2399 47.7426C47.2369 48.0446 47.234 48.3466 47.2316 48.6486C47.2266 49.3196 47.0046 49.5226 46.3436 49.7026L46.1156 49.7616C45.4445 49.9222 45.4446 49.9236 45.4836 50.624L45.4846 50.6426C45.4976 50.8676 45.5596 50.9256 45.7996 50.9196C46.9742 50.8932 48.1488 50.8834 49.3234 50.8737L49.9366 50.8686C50.3091 50.8653 50.6815 50.8663 51.0684 50.8674C51.2674 50.868 51.4701 50.8686 51.6786 50.8686L51.8036 49.9326C51.6288 49.8862 51.4584 49.8437 51.2916 49.8021L51.2914 49.8021C50.9439 49.7154 50.6119 49.6326 50.2876 49.5266C49.8636 49.3826 49.7136 49.1266 49.7156 48.6786ZM97.6176 38.4416C97.7766 39.2146 97.7726 39.9106 97.2046 40.4376C96.6837 40.9216 96.0369 40.8089 95.3929 40.6967C95.3385 40.6872 95.284 40.6777 95.2296 40.6686C95.2495 40.7812 95.2701 40.8887 95.29 40.9926L95.2902 40.9939L95.2904 40.9947L95.2904 40.9948C95.3353 41.2294 95.3768 41.446 95.3996 41.6646C95.6526 44.0126 94.6416 45.7566 92.4636 46.7526C91.6416 47.1286 90.7676 47.2676 89.8756 47.3396C89.4326 47.3746 89.0456 47.7136 89.0026 48.0776C88.9596 48.4476 89.1906 48.8266 89.6556 48.9366C90.0805 49.0368 90.5193 49.0821 90.9575 49.1273L90.9575 49.1273C91.0834 49.1403 91.2092 49.1533 91.3346 49.1676C91.7322 49.2131 92.1313 49.2504 92.5304 49.2877L92.5305 49.2877L92.5306 49.2877L92.5307 49.2877L92.5308 49.2877L92.5309 49.2877L92.5311 49.2878L92.5312 49.2878L92.5313 49.2878L92.5314 49.2878L92.5314 49.2878L92.5315 49.2878L92.5315 49.2878L92.5316 49.2878L92.5316 49.2878L92.5317 49.2878L92.5317 49.2878L92.5318 49.2878L92.5318 49.2878C93.3409 49.3634 94.15 49.439 94.9466 49.5836C96.7456 49.9076 97.7506 51.4776 97.4336 53.2866C97.1506 54.8966 96.2196 56.0666 94.9216 56.9656C92.7326 58.4806 90.3316 58.9246 87.7746 58.1506C86.3116 57.7086 85.2806 56.7466 84.9236 55.1916C84.7466 54.4126 84.9356 53.7066 85.5216 53.1796C85.9931 52.756 86.492 52.3639 86.9909 51.9719L86.9909 51.9719L86.9912 51.9717L86.9913 51.9716L86.9913 51.9716L86.9914 51.9715L86.9915 51.9715L86.9915 51.9714L86.9916 51.9714L86.9917 51.9713L86.9917 51.9713C87.2311 51.7832 87.4704 51.5951 87.7066 51.4036L87.9436 51.1666L87.6726 50.9776C86.9286 50.6246 86.3336 50.1406 86.1026 49.3026C86.0236 49.0176 86.1056 48.8316 86.3466 48.6856C86.7577 48.4383 87.1664 48.1869 87.5726 47.9316C87.7643 47.8139 87.9501 47.6871 88.1296 47.5516C88.3726 47.3666 88.3506 47.2286 88.0606 47.1216C87.3876 46.8736 86.7906 46.5146 86.3256 45.9606C85.5496 45.0356 85.3316 43.9346 85.3946 42.7716C85.4936 40.9566 86.4796 39.7596 88.0826 38.9916C89.9886 38.0766 91.9006 38.0176 93.8426 38.8516C94.5606 39.1586 95.3176 39.2256 96.0886 39.1706C96.6636 39.1296 97.1676 38.9126 97.6176 38.4416ZM83.4426 49.7556C83.0853 49.7009 82.7322 49.6221 82.3856 49.5196C81.7776 49.3336 81.7036 49.2196 81.6966 48.5766C81.6889 47.8125 81.6824 47.0485 81.6758 46.2845L81.6758 46.2832L81.6758 46.2818L81.6757 46.2804L81.6757 46.2791L81.6757 46.2777L81.6757 46.2764L81.6757 46.275L81.6757 46.2736C81.6669 45.2494 81.658 44.2253 81.6466 43.2016C81.6366 42.3956 81.5406 41.6006 81.2936 40.8306C80.6436 38.8006 78.6526 37.7106 76.6606 38.3096C75.5566 38.6426 74.6086 39.2616 73.7256 39.9886L73.4036 40.2356L73.4046 39.9046C73.4112 39.7855 73.4197 39.6665 73.4282 39.5474C73.4469 39.2855 73.4657 39.0235 73.4636 38.7616C73.4622 38.6232 73.4251 38.4844 73.3901 38.3538C73.3748 38.2965 73.3599 38.2409 73.3486 38.1876C73.121 38.2562 72.9006 38.3249 72.6847 38.3921L72.6843 38.3923C72.186 38.5475 71.7122 38.6952 71.2316 38.8166C70.7479 38.9384 70.2574 39.0327 69.7668 39.1271C69.5566 39.1675 69.3463 39.208 69.1366 39.2506C68.7896 39.3206 68.5346 39.5306 68.5406 39.7696C68.5486 40.0674 68.7674 40.1528 68.9865 40.2383C69.0154 40.2496 69.0442 40.2608 69.0726 40.2726C69.5146 40.4536 69.9556 40.6366 70.3926 40.8306C70.7046 40.9696 70.8316 41.2276 70.8286 41.5626C70.8224 42.2251 70.8167 42.8877 70.8111 43.5504L70.8111 43.5605C70.797 45.2239 70.7829 46.8877 70.7586 48.5516C70.7486 49.2876 70.5626 49.4816 69.8386 49.6436L69.5226 49.7066C68.8526 49.8216 68.8336 49.8486 68.8796 50.5556L68.8836 50.6726C68.8756 50.9446 68.9946 51.0326 69.2746 51.0296C71.0546 51.0086 72.8356 50.9986 74.6156 51.0056C75.3786 51.0086 75.4606 50.9486 75.4446 50.1646L75.4086 49.8276C75.2747 49.8052 75.1426 49.7846 75.012 49.7643L75.0116 49.7643C74.7171 49.7185 74.4302 49.6739 74.1476 49.6116C73.7206 49.5166 73.5676 49.3416 73.5276 48.9076C73.4906 48.5106 73.4786 48.1076 73.4746 47.7076C73.4546 45.8766 73.4386 44.0456 73.4296 42.2156C73.4276 41.7546 73.5126 41.3266 73.9366 41.0296C74.5607 40.5836 75.2964 40.3198 76.0616 40.2676C77.6496 40.1586 78.8566 41.0996 78.9426 42.6826C79.0176 44.0647 79.0235 45.4503 79.0294 46.8359C79.0319 47.4082 79.0343 47.9805 79.0416 48.5526C79.0433 48.6737 79.0257 48.7956 79.0082 48.9164C79.0046 48.9412 79.001 48.9659 78.9976 48.9906C78.9596 49.2766 78.8196 49.4916 78.5296 49.5656C78.2466 49.6396 77.9596 49.7056 77.6706 49.7496L77.6578 49.7515C77.2394 49.8136 77.2303 49.8149 77.1976 50.2456L77.2086 50.5386C77.2581 51.03 77.2605 51.03 77.7297 51.025L77.7726 51.0246C79.4946 51.0106 81.2156 51.0016 82.9366 51.0036C83.6566 51.0056 83.7076 50.9716 83.7136 50.2296L83.7116 50.0536C83.7226 49.8636 83.6376 49.7866 83.4426 49.7556ZM102.352 39.1606C103.978 38.3196 105.69 37.9916 107.495 38.4326C109.777 38.9906 111.418 40.8516 111.745 43.2216C111.786 43.5159 111.808 43.8122 111.825 44.0376L111.825 44.0387V44.0388C111.832 44.1315 111.838 44.2121 111.845 44.2756C111.811 46.4526 111.246 48.2116 109.707 49.5326C107.757 51.2076 104.716 51.7756 102.23 50.5236C101.168 49.9896 100.388 49.1676 99.8806 48.1046C99.1016 46.4676 98.9076 44.7476 99.3136 42.9846C99.7156 41.2406 100.772 39.9776 102.352 39.1606ZM62.0976 38.4016C60.1986 37.9676 58.4196 38.3966 56.7716 39.3616C55.3466 40.1956 54.4256 41.4416 54.0726 43.0696C53.7416 44.5906 53.8766 46.0856 54.4156 47.5426C54.7436 48.4306 55.2406 49.2116 55.9696 49.8206C57.5 51 59.2986 51.4256 61.2076 51.0686C62.8236 50.7656 64.2436 50.0476 65.2756 48.7046C66.2416 47.4486 66.6096 46.0066 66.6476 44.4436C66.6293 44.2849 66.6155 44.1254 66.6017 43.9659V43.9658C66.5723 43.6276 66.543 43.2898 66.4716 42.9616C65.9496 40.5506 64.5396 38.9586 62.0976 38.4016ZM129.751 46.2486C128.787 48.0426 127.349 49.2406 125.294 49.5566C124.007 49.7536 122.718 49.6966 121.491 49.2096C120.714 48.9016 120.425 48.2306 120.401 47.4376C120.379 46.6604 120.368 45.883 120.368 45.1056C120.364 42.3716 120.364 39.6376 120.368 36.9046C120.369 36.1042 120.382 35.3022 120.396 34.5008L120.398 34.3186C120.409 33.7126 120.536 33.5096 121.127 33.4606C123.723 33.2426 126.2 33.5226 128.257 35.3496C129.529 36.4796 130.253 37.9206 130.554 39.5756C130.639 40.0487 130.684 40.5294 130.729 41.0105L130.729 41.0107L130.729 41.0108L130.729 41.0109L130.729 41.0111C130.749 41.2314 130.77 41.4518 130.795 41.6716C130.732 43.2696 130.516 44.8246 129.751 46.2486ZM59.6995 49.6685C61.5265 50.3165 63.1835 49.4576 63.6465 47.5816C63.8165 46.8936 63.9015 45.8754 63.9015 45.1695C63.8625 43.7365 63.5815 42.3725 62.7275 41.1815C62.0955 40.2985 61.2475 39.7436 60.1605 39.5896C58.3895 39.3376 57.2325 40.3886 56.8485 41.8156C56.3475 43.6816 56.5055 45.5225 57.2795 47.2915C57.7625 48.3925 58.5265 49.2515 59.6995 49.6685ZM92.8127 44.4926C92.2967 46.1436 90.7947 46.3716 89.6177 45.8436C88.6147 45.3946 88.1777 44.5106 87.9487 43.5016C87.8875 43.2348 87.8584 42.961 87.8294 42.6869L87.8294 42.6866C87.8161 42.5621 87.8029 42.4376 87.7867 42.3136C87.8077 41.7446 87.9017 41.1986 88.1467 40.6866C88.8977 39.1096 90.7427 39.2036 91.7637 39.9176C92.2017 40.2236 92.5067 40.6396 92.6977 41.1326C93.1229 42.2057 93.1635 43.3929 92.8127 44.4926ZM90.5957 51.4546C91.4817 51.4806 92.4897 51.5356 93.4637 51.8206C94.3207 52.0706 95.0257 52.5086 95.2337 53.4656C95.4847 54.6216 94.9287 55.7716 93.8097 56.3896C92.7617 56.9676 91.6237 57.0156 90.4697 56.8966C89.4817 56.7946 88.5927 56.4526 87.8807 55.7226C86.9427 54.7616 86.9377 53.4316 87.8767 52.4736C88.7157 51.6176 89.1647 51.4406 90.5957 51.4546ZM104.912 49.6636C106.752 50.3116 108.383 49.4736 108.862 47.5876C109.038 46.8926 109.112 46.199 109.112 45.4426C109.112 45.3778 109.113 45.313 109.114 45.2484V45.2482C109.116 45.1074 109.119 44.967 109.11 44.8266C109.034 43.5486 108.748 42.3316 108.007 41.2616C107.304 40.2476 106.346 39.6496 105.1 39.5626C103.706 39.4646 102.534 40.2436 102.122 41.6676C101.504 43.8056 101.713 45.8896 102.799 47.8496C103.271 48.7026 103.973 49.3336 104.912 49.6636ZM141.497 34.1066C141.503 33.6736 141.694 33.4856 142.124 33.4746C143.183 33.4456 144.235 33.4516 145.257 33.8166C146.579 34.2886 147.392 35.4286 147.377 36.8216L147.375 36.9304V36.9305C147.37 37.4285 147.364 37.9215 147.181 38.4006C146.792 39.4126 146.046 39.9466 144.988 40.0506C144.607 40.0892 144.223 40.1041 143.86 40.1181L143.86 40.1181C143.697 40.1244 143.539 40.1305 143.387 40.1386L141.745 40.0666C141.527 40.0586 141.432 39.9626 141.433 39.7386L141.497 34.1066ZM148.303 47.6006C147.774 48.7516 146.81 49.3566 145.603 49.5666C144.641 49.7316 143.654 49.6883 142.711 49.4396C142.005 49.2586 141.717 48.6916 141.576 48.0626C141.498 47.7174 141.494 47.3184 141.491 46.9445C141.491 46.8624 141.49 46.7814 141.489 46.7026C141.476 46.0266 141.486 44.6236 141.486 44.6236H141.472C141.472 44.3731 141.472 44.131 141.472 43.8938V43.8809V43.8797V43.8785C141.473 43.1743 141.473 42.5122 141.469 41.7986C141.468 41.5916 141.503 41.4886 141.756 41.4966C142.093 41.5067 142.431 41.5152 142.768 41.5236L142.769 41.5236L142.769 41.5236L142.769 41.5236C143.33 41.5377 143.892 41.5517 144.453 41.5736C145.256 41.6046 146.008 41.8426 146.715 42.2236C147.791 42.8036 148.439 43.6916 148.617 44.9116C148.753 45.8366 148.695 46.7466 148.303 47.6006Z" fill="white"/>
</svg>
