<svg width="180" height="180" viewBox="0 0 180 180" fill="none" xmlns="http://www.w3.org/2000/svg">
<circle cx="90" cy="90" r="90" fill="#FF9900"/>
<path fill-rule="evenodd" clip-rule="evenodd" d="M112.97 108.985C115.315 108.548 117.724 108.591 120.053 109.111V59.2175L67.4363 74.3641C67.4363 94.0121 67.4363 113.65 67.4363 133.276C67.4363 142.469 57.3317 149.165 49.226 150.65C39.1687 152.387 31 147.491 31 139.594C31 131.697 39.2159 124.053 49.2103 122.315C52.6162 121.664 56.1311 121.893 59.425 122.979V51.6521L127.954 36V116.361C128.709 124.89 120.084 131.35 112.907 132.597C104.502 134.05 97.7029 129.944 97.7029 123.421C97.7029 116.898 104.502 110.438 112.907 108.985H112.97Z" fill="white"/>
</svg>
