<svg width="180" height="180" viewBox="0 0 180 180" fill="none" xmlns="http://www.w3.org/2000/svg">
<circle cx="90" cy="90" r="90" fill="#8CC64C"/>
<path fill-rule="evenodd" clip-rule="evenodd" d="M83.5 28L77.5 31.5V37.5L83.5 41.5L89.5 37.5V31.5L83.5 28ZM63 29V40H66.5V34.5L71.5 40H74V29H71V34L66 29H63ZM99 29H93V40H99C106 40 106 29 99 29ZM106.5 29V28.5H116V31.5H109.5V33.5H116V35.5H109.5V37.5H116V40H106.5V29ZM96 32H98.0645C100.645 32 100.645 37 98.0645 37H96V32ZM51.1671 141.844L43 47H136L127.833 141.844L89.6317 152.646L51.1671 141.844ZM63.0789 81.6897V112.31C63.0789 114.793 75.3158 120.586 76.9474 113.966V83.3448H81.8421V113.966C79.2316 129.193 59 117.276 59 113.966V78.3793L90 61L121 78.3793V114.793L90 133L77.7632 126.379L82.6579 123.069L90 128.034L116.105 112.31V81.6897L90 65.9655L63.0789 81.6897ZM109.579 92.4483H104.684C104.392 85.1655 90 85.8276 90 91.6207C90 93.287 93.1751 93.7455 96.968 94.2932C102.594 95.1056 109.579 96.1142 109.579 101.552C109.579 113.966 85.1053 114.793 85.1053 101.552H89.1842C89.1842 110.821 108.763 109 104.684 101.552C102.252 100.01 98.9132 99.387 95.6815 98.7844C90.2418 97.7701 85.1053 96.8123 85.1053 91.6207C85.1053 80.0345 109.579 80.0345 109.579 92.4483Z" fill="white"/>
</svg>
