<svg width="180" height="180" viewBox="0 0 180 180" fill="none" xmlns="http://www.w3.org/2000/svg">
<circle cx="90" cy="90" r="90" fill="#D23B3B"/>
<path d="M59.125 67C53.5563 67 49 71.5563 49 77.125V97.6281H58.6187C62.4156 97.6281 65.2 100.666 65.2 104.209C67.9844 103.956 69.7563 102.944 70.7688 101.931C72.2875 100.666 73.0469 98.8938 74.3125 96.8687C75.5781 94.8438 76.5906 92.5656 79.1219 91.0469C81.1469 89.7812 83.6781 88.7688 87.2219 88.7688V87.5031C87.2219 83.7063 90.2594 80.9219 93.8031 80.9219H120.381C124.178 80.9219 126.963 83.9594 126.963 87.5031V94.0844C126.963 97.8813 123.925 100.919 120.381 100.919H93.8031C90.0063 100.919 87.2219 97.6281 87.2219 94.0844V92.3125C84.4375 92.3125 82.4125 93.0719 81.1469 94.0844C79.6281 95.0969 78.6156 96.8687 77.6031 98.6406C76.5906 100.666 75.5781 102.691 73.5531 104.716L73.0469 104.969C83.425 106.487 88.2344 110.284 92.0312 113.828C96.5875 117.878 100.384 121.422 113.294 121.675V120.156C113.294 116.359 116.331 113.575 120.128 113.575H130V77.125C130 71.5563 125.444 67 119.875 67H59.125ZM93.8031 85.225C92.5375 85.225 91.525 86.2375 91.525 87.25V93.8313C91.525 95.0969 92.5375 95.8562 93.8031 95.8562H120.381C121.647 95.8562 122.659 94.8438 122.406 93.8313V87.5031C122.406 86.2375 121.394 85.225 120.381 85.4781L93.8031 85.225ZM49 102.184V113.322H58.6187C59.8844 113.322 60.8969 112.309 60.8969 111.044V104.463C60.8969 103.197 59.8844 102.438 58.6187 102.438H49V102.184ZM65.2 108.006V111.044C65.2 114.841 62.1625 117.625 58.6187 117.625H49V137.875C49 143.444 53.5563 148 59.125 148H119.875C125.444 148 130 143.444 130 137.875V133.066H120.128C116.331 133.066 113.294 130.028 113.294 126.231V124.712C99.625 124.712 94.3094 120.156 89.7531 116.106C84.9438 112.056 80.6406 108.006 65.2 108.006ZM120.128 117.625C118.863 117.625 117.85 118.638 117.85 119.903V126.484C117.85 127.75 118.863 128.509 120.128 128.509H130V117.625H120.128Z" fill="white"/>
<path d="M40.3333 49H44.5093V43.186L49.1893 49H52.9333V36.4H48.7573V41.962L44.2753 36.4H40.3333V49ZM60.9482 49.27C64.8362 49.27 67.8422 46.354 67.8422 42.7V42.664C67.8422 39.01 64.8722 36.13 60.9842 36.13C57.0962 36.13 54.0902 39.046 54.0902 42.7V42.736C54.0902 46.39 57.0602 49.27 60.9482 49.27ZM60.9842 45.544C59.3642 45.544 58.3382 44.194 58.3382 42.7V42.664C58.3382 41.188 59.3462 39.856 60.9482 39.856C62.5682 39.856 63.5942 41.206 63.5942 42.7V42.736C63.5942 44.212 62.5862 45.544 60.9842 45.544ZM68.9856 49H73.6656C78.7596 49 81.3156 46.354 81.3156 42.628V42.592C81.3156 38.866 78.8136 36.4 73.8096 36.4H68.9856V49ZM73.1976 45.328V40.072H73.8996C75.8256 40.072 77.0676 40.864 77.0676 42.682V42.718C77.0676 44.536 75.8256 45.328 73.8996 45.328H73.1976ZM82.468 49H93.304V45.544H86.608V44.176H92.764V41.134H86.608V39.856H93.214V36.4H82.468V49ZM94.2588 45.004H100.523V41.656H94.2588V45.004ZM101.786 49H105.998V45.4H106.898L109.274 49H114.08L111.146 44.716C112.676 43.978 113.63 42.7 113.63 40.864V40.828C113.63 39.532 113.234 38.596 112.478 37.84C111.596 36.958 110.174 36.4 107.942 36.4H101.786V49ZM105.998 42.394V39.928H107.834C108.806 39.928 109.436 40.324 109.436 41.134V41.17C109.436 41.944 108.824 42.394 107.816 42.394H105.998ZM114.654 49H125.49V45.544H118.794V44.176H124.95V41.134H118.794V39.856H125.4V36.4H114.654V49ZM126.624 49H131.304C136.398 49 138.954 46.354 138.954 42.628V42.592C138.954 38.866 136.452 36.4 131.448 36.4H126.624V49ZM130.836 45.328V40.072H131.538C133.464 40.072 134.706 40.864 134.706 42.682V42.718C134.706 44.536 133.464 45.328 131.538 45.328H130.836Z" fill="white"/>
</svg>
