<svg width="180" height="180" viewBox="0 0 180 180" fill="none" xmlns="http://www.w3.org/2000/svg">
<circle cx="90" cy="90" r="90" fill="#2A61B7"/>
<path fill-rule="evenodd" clip-rule="evenodd" d="M137.656 64.1185C137.586 64.1782 137.496 64.2104 137.404 64.2104H132.484C132.328 64.2104 132.176 64.1281 132.112 63.9861C132.038 63.8225 132.081 63.6318 132.215 63.5212L141.194 55.9596C141.394 55.7907 141.394 55.4827 141.195 55.3134L132.229 47.7006C132.12 47.6079 132.057 47.4662 132.081 47.3256C132.115 47.132 132.281 47 132.468 47H137.203C137.294 47 137.382 47.0322 137.455 47.0916L147.226 55.3109L147.314 55.3864C147.465 55.5145 147.469 55.7453 147.323 55.8788L147.226 55.9671L137.656 64.1185Z" fill="white"/>
<path fill-rule="evenodd" clip-rule="evenodd" d="M41.7152 47.1224H38.713C38.3531 47.1224 38.0582 47.4172 38.0582 47.7775V57.4811C38.0582 57.709 37.7898 57.8314 37.6177 57.6815L26.5058 48.0076C25.7482 47.3485 24.9249 47.0129 24.0561 47.0129C23.2893 47.0129 22 47.326 22 49.42V63.4586C22 63.8204 22.2931 64.1134 22.6548 64.1134H25.6552C26.0166 64.1134 26.3097 63.8204 26.3097 63.459V53.715C26.3097 53.4867 26.5784 53.3647 26.7505 53.5149L37.9798 63.3352C38.6758 63.9528 39.4326 64.2659 40.2295 64.2659C41.0289 64.2659 42.3693 63.9388 42.3693 61.7485V47.7768C42.3693 47.4169 42.0748 47.1224 41.7152 47.1224Z" fill="white"/>
<path fill-rule="evenodd" clip-rule="evenodd" d="M63.6761 47.1202H60.1866C59.9733 47.1202 59.798 47.2941 59.798 47.5088V58.8731C59.798 59.8091 58.6358 60.284 56.3417 60.284H51.5959C49.2589 60.284 48.0723 59.8091 48.0723 58.8731V47.5088C48.0723 47.2941 47.8984 47.1202 47.6834 47.1202H44.1509C43.9355 47.1202 43.7612 47.2941 43.7612 47.5088V59.0477C43.7612 59.8481 43.8968 60.5387 44.1602 61.1012C44.4225 61.6573 44.7796 62.1357 45.223 62.5233C45.657 62.9018 46.1669 63.2028 46.7351 63.4157C47.2865 63.6243 47.8677 63.781 48.4591 63.8844C49.0478 63.9907 49.6604 64.0544 50.2801 64.078C50.8838 64.1002 51.4513 64.1113 51.983 64.1113H55.8447C58.6794 64.1113 60.6968 63.7191 62.014 62.9136C63.3752 62.0806 64.0658 60.781 64.0658 59.0477V47.5088C64.0658 47.2941 63.8904 47.1202 63.6761 47.1202Z" fill="white"/>
<path fill-rule="evenodd" clip-rule="evenodd" d="M84.0776 50.1192V47.8828C84.0776 47.4498 83.7269 47.0991 83.2939 47.0991H66.2266C65.7937 47.0991 65.4426 47.4501 65.4426 47.8831V50.1192C65.4426 50.5522 65.7937 50.9035 66.227 50.9035H72.1973C72.4156 50.9035 72.5927 51.0803 72.5927 51.2986V63.3273C72.5927 63.7603 72.9438 64.1113 73.3767 64.1113H76.1195C76.5528 64.1113 76.9042 63.7599 76.9042 63.3269V51.2986C76.9042 51.0803 77.081 50.9035 77.2992 50.9035H83.2932C83.7265 50.9035 84.0776 50.5525 84.0776 50.1192Z" fill="white"/>
<path fill-rule="evenodd" clip-rule="evenodd" d="M88.551 55.5739L90.7373 52.4315C90.8371 52.2873 91.05 52.2865 91.1513 52.4297L93.3637 55.5499C93.4668 55.6948 93.363 55.8956 93.1852 55.8956H88.7191C88.5538 55.8956 88.4565 55.7095 88.551 55.5739ZM93.362 48.2699C92.774 47.4491 91.9958 47.0322 91.0486 47.0322C90.1143 47.0322 89.3436 47.457 88.7542 48.2971L78.2262 63.4994C78.1257 63.644 78.1328 63.8408 78.2545 63.9796C78.3336 64.0694 78.4542 64.1113 78.5737 64.1113H82.7123C82.844 64.1113 82.9678 64.044 83.0393 63.9335L85.6833 59.8657C85.7413 59.7766 85.8401 59.7229 85.9463 59.7229C85.9463 59.7229 94.7614 59.7208 96.0958 59.7226C96.2017 59.7226 96.2994 59.7755 96.3577 59.8639L99.0614 63.9367C99.133 64.0458 99.255 64.1113 99.3856 64.1113H103.357C103.5 64.1113 103.633 64.0319 103.7 63.9034C103.768 63.7764 103.76 63.6229 103.679 63.5037L93.362 48.2699Z" fill="white"/>
<path fill-rule="evenodd" clip-rule="evenodd" d="M124.419 47.1202H121.334C120.996 47.1202 120.721 47.3947 120.721 47.7332V57.5702C120.721 57.7627 120.495 57.8658 120.35 57.7395L109.169 48.0055C108.412 47.3464 107.587 47.0107 106.717 47.0107C105.951 47.0107 104.662 47.3238 104.662 49.4178V63.498C104.662 63.8354 104.938 64.1113 105.275 64.1113H108.359C108.698 64.1113 108.973 63.8365 108.973 63.4976V53.6212C108.973 53.4284 109.2 53.3257 109.345 53.4523L120.643 63.333C121.338 63.9506 122.096 64.2637 122.893 64.2637C123.691 64.2637 125.032 63.9367 125.032 61.7464V47.7339C125.032 47.395 124.758 47.1202 124.419 47.1202Z" fill="white"/>
<path fill-rule="evenodd" clip-rule="evenodd" d="M130.326 47.1202H126.795C126.58 47.1202 126.406 47.2941 126.406 47.5088V63.7223C126.406 63.9367 126.58 64.1113 126.795 64.1113H130.326C130.541 64.1113 130.716 63.9367 130.716 63.7223V47.5088C130.716 47.2941 130.541 47.1202 130.326 47.1202Z" fill="white"/>
<path fill-rule="evenodd" clip-rule="evenodd" d="M148.735 54.2134C148.891 54.3469 149.122 54.3469 149.279 54.2138L157.116 47.7006C157.225 47.6079 157.288 47.4662 157.263 47.3256C157.23 47.132 157.063 47 156.876 47H152.142C152.051 47 151.962 47.0322 151.89 47.0916L146.39 51.5748C146.191 51.7423 146.191 52.0482 146.388 52.2168L148.735 54.2134Z" fill="white"/>
<path fill-rule="evenodd" clip-rule="evenodd" d="M148.708 57.061C148.865 56.9275 149.096 56.9272 149.253 57.0606L157.206 63.5566C157.315 63.649 157.378 63.791 157.354 63.9316C157.32 64.1249 157.154 64.2573 156.967 64.2573H152.232C152.141 64.2573 152.053 64.2251 151.98 64.1657L146.515 59.6152C146.316 59.4477 146.315 59.1418 146.513 58.9732L148.708 57.061Z" fill="white"/>
<path fill-rule="evenodd" clip-rule="evenodd" d="M66.0828 132.467C65.8351 132.681 65.5133 132.797 65.1838 132.797H47.6268C47.0714 132.797 46.53 132.501 46.3015 131.991C46.0371 131.404 46.1904 130.72 46.6679 130.323L78.7072 103.183C79.421 102.577 79.4235 101.471 78.711 100.864L46.7164 73.5402C46.3282 73.2076 46.1023 72.699 46.1904 72.1943C46.3104 71.4995 46.9029 71.0256 47.5719 71.0256H64.4675C64.7918 71.0256 65.1072 71.1412 65.3664 71.3544L100.233 100.855L100.548 101.126C101.084 101.586 101.098 102.414 100.579 102.893L100.234 103.21L66.0828 132.467Z" fill="white"/>
<path fill-rule="evenodd" clip-rule="evenodd" d="M105.652 97.5148C106.217 98.0049 107.049 98.0049 107.613 97.5161L135.86 73.5984C136.252 73.2581 136.479 72.7377 136.392 72.2213C136.27 71.5104 135.671 71.0256 134.996 71.0256H117.931C117.603 71.0256 117.285 71.1438 117.023 71.362L97.2017 87.8252C96.4846 88.4402 96.482 89.5637 97.1952 90.1826L105.652 97.5148Z" fill="white"/>
<path fill-rule="evenodd" clip-rule="evenodd" d="M105.133 107.368C105.701 106.897 106.534 106.895 107.102 107.367L135.859 130.321C136.252 130.647 136.48 131.149 136.392 131.646C136.27 132.329 135.668 132.797 134.992 132.797H117.872C117.545 132.797 117.225 132.683 116.962 132.473L97.2034 116.394C96.4841 115.802 96.4815 114.721 97.1969 114.125L105.133 107.368Z" fill="white"/>
</svg>
