<svg width="180" height="180" viewBox="0 0 180 180" fill="none" xmlns="http://www.w3.org/2000/svg">
<circle cx="90" cy="90" r="90" fill="#027BC5"/>
<path d="M34.1406 123.789C28.2812 122.145 25.3516 118.361 25.3516 112.437V107.603C25.3516 104.315 24.0332 102.671 21.3965 102.671V97.1289C24.0332 97.1289 25.3516 95.4769 25.3516 92.1729V87.0459C25.4004 84.1162 26.1572 81.748 27.6221 79.9414C29.1032 78.1348 31.276 76.8245 34.1406 76.0107L35.6787 80.3076C33.6279 81.0889 32.5618 83.278 32.4805 86.875V92.1729C32.4805 95.8187 30.9749 98.3903 27.9639 99.8877C30.9749 101.385 32.4805 103.965 32.4805 107.627V112.9C32.5618 116.497 33.6279 118.687 35.6787 119.468L34.1406 123.789ZM72.0068 108.359H60.2637L58.2129 115H49.0576L62.0947 79.4531H70.1514L83.2861 115H74.082L72.0068 108.359ZM62.3145 101.743H69.9561L66.123 89.4141L62.3145 101.743ZM94.4678 102.939V115H85.8984V79.4531H100.083C102.801 79.4531 105.202 79.9577 107.285 80.9668C109.385 81.9596 111.004 83.3838 112.144 85.2393C113.299 87.0785 113.877 89.1699 113.877 91.5137C113.877 94.9805 112.632 97.7555 110.142 99.8389C107.668 101.906 104.266 102.939 99.9365 102.939H94.4678ZM94.4678 96.3232H100.083C101.743 96.3232 103.005 95.9082 103.867 95.0781C104.746 94.248 105.186 93.0762 105.186 91.5625C105.186 89.9023 104.738 88.5758 103.843 87.583C102.948 86.5902 101.727 86.0856 100.181 86.0693H94.4678V96.3232ZM127.598 115H119.053V79.4531H127.598V115ZM144.321 119.468C146.372 118.687 147.438 116.497 147.52 112.9V107.603C147.52 103.94 149.033 101.369 152.061 99.8877C149.033 98.4066 147.52 95.835 147.52 92.1729V86.875C147.438 83.278 146.372 81.0889 144.321 80.3076L145.859 76.0107C148.773 76.8245 150.962 78.1592 152.427 80.0146C153.892 81.8538 154.632 84.2708 154.648 87.2656V92.1729C154.648 95.4769 155.967 97.1289 158.604 97.1289V102.671C155.967 102.671 154.648 104.307 154.648 107.578V112.778C154.535 118.507 151.605 122.178 145.859 123.789L144.321 119.468Z" fill="white"/>
<path d="M58.6748 50H64.2908V45.2H65.4908L68.6588 50H75.0668L71.1548 44.288C73.1948 43.304 74.4668 41.6 74.4668 39.152V39.104C74.4668 37.376 73.9388 36.128 72.9308 35.12C71.7548 33.944 69.8588 33.2 66.8828 33.2H58.6748V50ZM64.2908 41.192V37.904H66.7388C68.0348 37.904 68.8748 38.432 68.8748 39.512V39.56C68.8748 40.592 68.0588 41.192 66.7148 41.192H64.2908ZM75.8311 50H90.2791V45.392H81.3511V43.568H89.5591V39.512H81.3511V37.808H90.1591V33.2H75.8311V50ZM99.016 50.312C103.528 50.312 106.432 48.152 106.432 44.624V44.576C106.432 41.192 103.552 39.944 99.256 39.152C97.48 38.816 97.024 38.528 97.024 38.072V38.024C97.024 37.616 97.408 37.328 98.248 37.328C99.808 37.328 101.704 37.832 103.288 38.984L106.024 35.192C104.08 33.656 101.68 32.888 98.44 32.888C93.808 32.888 91.312 35.36 91.312 38.552V38.6C91.312 42.152 94.624 43.232 98.392 44C100.192 44.36 100.72 44.624 100.72 45.104V45.152C100.72 45.608 100.288 45.872 99.28 45.872C97.312 45.872 95.224 45.296 93.4 43.904L90.4 47.48C92.536 49.352 95.608 50.312 99.016 50.312ZM111.416 50H117.032V37.952H121.976V33.2H106.472V37.952H111.416V50Z" fill="white"/>
</svg>
