<svg width="180" height="180" viewBox="0 0 180 180" fill="none" xmlns="http://www.w3.org/2000/svg">
<circle cx="90" cy="90" r="90" fill="#B4294A"/>
<path d="M90.2334 68C70.2411 68 49 74.1908 49 85.6715V138.686C49 150.29 69.7405 156.357 90.2334 156.357C110.726 156.357 131.467 150.29 131.467 138.686V85.6715C131.467 74.1908 110.226 68 90.2334 68ZM125.576 138.686C125.576 144.258 111.062 150.467 90.2334 150.467C69.4045 150.467 54.8904 144.259 54.8904 138.686V130.428C62.5894 135.835 76.6852 138.686 90.2334 138.686C103.782 138.686 117.877 135.835 125.576 130.428V138.686ZM125.576 121.014C125.576 125.933 112.128 132.796 90.2334 132.796C68.3384 132.796 54.8904 125.933 54.8904 121.014V112.756C62.5894 118.164 76.6852 121.014 90.2334 121.014C103.782 121.014 117.877 118.164 125.576 112.756V121.014ZM125.576 103.343C125.576 108.261 112.128 115.124 90.2334 115.124C68.3384 115.124 54.8904 108.262 54.8904 103.343V95.0846C62.5894 100.492 76.6852 103.343 90.2334 103.343C103.782 103.343 117.877 100.492 125.576 95.0846V103.343ZM90.2334 97.4526C68.3384 97.4526 54.8904 90.5902 54.8904 85.6715C54.8904 80.753 68.3384 73.8904 90.2334 73.8904C112.128 73.8904 125.576 80.7527 125.576 85.6715C125.576 90.59 112.128 97.4526 90.2334 97.4526Z" fill="white"/>
<path d="M72.6059 48.312C77.1179 48.312 80.0219 46.152 80.0219 42.624V42.576C80.0219 39.192 77.1419 37.944 72.8459 37.152C71.0699 36.816 70.6139 36.528 70.6139 36.072V36.024C70.6139 35.616 70.9979 35.328 71.8379 35.328C73.3979 35.328 75.2939 35.832 76.8779 36.984L79.6139 33.192C77.6699 31.656 75.2699 30.888 72.0299 30.888C67.3979 30.888 64.9019 33.36 64.9019 36.552V36.6C64.9019 40.152 68.2139 41.232 71.9819 42C73.7819 42.36 74.3099 42.624 74.3099 43.104V43.152C74.3099 43.608 73.8779 43.872 72.8699 43.872C70.9019 43.872 68.8139 43.296 66.9899 41.904L63.9899 45.48C66.1259 47.352 69.1979 48.312 72.6059 48.312ZM99.5114 45.888L97.7834 44.424C98.7194 43.056 99.2714 41.4 99.2714 39.6V39.552C99.2714 34.68 95.3114 30.84 90.1274 30.84C84.9434 30.84 80.9354 34.728 80.9354 39.6V39.648C80.9354 44.52 84.8954 48.36 90.0794 48.36C92.0474 48.36 93.8234 47.808 95.3114 46.848L97.1594 48.504L99.5114 45.888ZM90.1274 43.56C87.9434 43.56 86.5994 41.688 86.5994 39.696V39.648C86.5994 37.68 87.9434 35.808 90.0794 35.808C92.2634 35.808 93.6554 37.68 93.6554 39.672V39.72C93.6554 40.056 93.6074 40.392 93.5354 40.728L91.7354 39.096L89.3834 41.736L91.2794 43.368C90.9194 43.488 90.5354 43.56 90.1274 43.56ZM100.796 48H114.308V43.2H106.412V31.2H100.796V48Z" fill="white"/>
</svg>
