<svg width="180" height="180" viewBox="0 0 180 180" fill="none" xmlns="http://www.w3.org/2000/svg">
<circle cx="90" cy="90" r="90" fill="#BC33D2"/>
<path d="M126.42 127.8C126.17 127.19 126.03 126.52 126.03 125.82C126.03 125.12 126.17 124.45 126.42 123.84C126.68 123.23 127.05 122.67 127.51 122.21L127.54 122.17C127.8 121.91 128.1 121.66 128.42 121.47C128.59 121.36 128.77 121.26 128.97 121.17V112.95H120.46C120.2 114.75 119.34 116.37 118.1 117.62C116.55 119.17 114.4 120.13 112.03 120.13H106.9V142.55H121.95C122.03 142.42 122.11 142.29 122.2 142.16C122.38 141.9 122.58 141.66 122.8 141.44C123.27 140.97 123.84 140.58 124.48 140.32C125.09 140.07 125.76 139.93 126.46 139.93C127.15 139.93 127.83 140.07 128.44 140.32C129.08 140.58 129.64 140.97 130.12 141.44C130.59 141.91 130.98 142.48 131.24 143.12C131.49 143.73 131.63 144.4 131.63 145.1C131.63 145.79 131.49 146.45 131.24 147.08C130.98 147.72 130.59 148.29 130.12 148.76C129.65 149.23 129.08 149.62 128.44 149.88C127.83 150.13 127.16 150.27 126.46 150.27C125.78 150.27 125.13 150.14 124.52 149.89L124.48 149.88C123.84 149.62 123.28 149.23 122.8 148.76C122.51 148.47 122.25 148.13 122.03 147.78C121.91 147.58 121.8 147.36 121.71 147.15H104.6C103.96 147.15 103.39 146.89 102.97 146.47C102.54 146.04 102.28 145.47 102.28 144.83V120.13H91.08V140.47C91.25 140.56 91.42 140.65 91.59 140.76C91.9 140.95 92.19 141.19 92.44 141.44C92.92 141.92 93.3 142.48 93.56 143.12C93.81 143.73 93.95 144.4 93.95 145.1C93.95 145.78 93.82 146.43 93.57 147.04L93.56 147.08C93.3 147.72 92.91 148.28 92.44 148.76C91.97 149.23 91.4 149.62 90.76 149.88C90.15 150.13 89.48 150.27 88.78 150.27C88.09 150.27 87.42 150.13 86.8 149.88C86.16 149.62 85.59 149.23 85.12 148.76C84.65 148.29 84.26 147.72 84 147.08C83.75 146.47 83.61 145.8 83.61 145.1C83.61 144.42 83.74 143.77 83.99 143.16L84 143.12C84.26 142.48 84.65 141.92 85.12 141.44C85.37 141.19 85.64 140.97 85.94 140.78L85.98 140.75C86.14 140.66 86.31 140.57 86.48 140.48V120.13H71.54V130.67C71.54 131.31 71.28 131.88 70.86 132.3C70.44 132.72 69.87 132.98 69.23 132.98H58.63C58.55 133.14 58.46 133.29 58.36 133.45C58.18 133.72 57.97 133.98 57.73 134.22L57.69 134.26C57.22 134.73 56.65 135.12 56.01 135.38C55.4 135.63 54.73 135.77 54.03 135.77C53.35 135.77 52.7 135.64 52.09 135.39L52.05 135.38C51.41 135.12 50.85 134.73 50.37 134.26C49.9 133.79 49.51 133.22 49.25 132.58C49 131.97 48.86 131.3 48.86 130.6C48.86 129.91 49 129.24 49.25 128.62C49.51 127.98 49.9 127.41 50.37 126.94C50.86 126.48 51.44 126.09 52.08 125.83C52.69 125.58 53.36 125.44 54.06 125.44C54.76 125.44 55.43 125.58 56.04 125.83C56.65 126.09 57.21 126.46 57.67 126.93L57.71 126.96C57.97 127.22 58.22 127.52 58.41 127.84C58.51 128.01 58.62 128.19 58.71 128.39H66.93V119.94C65.3 119.58 63.84 118.76 62.71 117.63C61.2 116.12 60.27 114.06 60.27 111.8V106.31H35.73V121.36C35.86 121.44 35.99 121.52 36.12 121.61C36.38 121.79 36.61 121.99 36.84 122.21C37.31 122.68 37.7 123.25 37.96 123.89C38.21 124.5 38.35 125.17 38.35 125.87C38.35 126.56 38.21 127.24 37.96 127.85C37.7 128.49 37.31 129.05 36.84 129.53C36.37 130 35.8 130.39 35.16 130.65C34.55 130.9 33.88 131.04 33.18 131.04C32.49 131.04 31.83 130.9 31.2 130.65C30.56 130.39 29.99 130 29.52 129.53C29.05 129.06 28.66 128.49 28.4 127.85C28.14 127.22 28 126.55 28 125.85C28 125.17 28.13 124.52 28.38 123.91L28.39 123.87C28.65 123.23 29.04 122.67 29.51 122.19C29.8 121.9 30.14 121.64 30.49 121.42C30.68 121.3 30.91 121.19 31.12 121.1V104C31.12 103.36 31.38 102.79 31.8 102.37C32.23 101.94 32.8 101.68 33.44 101.68H60.27V90.48H37.81C37.72 90.65 37.63 90.82 37.52 90.99C37.33 91.3 37.09 91.59 36.84 91.84C36.36 92.32 35.8 92.7 35.16 92.96C34.55 93.21 33.88 93.35 33.18 93.35C32.5 93.35 31.85 93.22 31.24 92.97L31.2 92.96C30.56 92.7 30 92.31 29.52 91.84C29.05 91.37 28.66 90.8 28.4 90.16C28.15 89.55 28.01 88.88 28.01 88.18C28.01 87.49 28.15 86.82 28.4 86.2C28.66 85.56 29.05 84.99 29.52 84.52C29.99 84.05 30.56 83.66 31.2 83.4C31.82 83.14 32.48 83 33.19 83C33.87 83 34.52 83.13 35.13 83.38L35.17 83.39C35.81 83.65 36.37 84.04 36.85 84.51C37.1 84.76 37.32 85.03 37.52 85.33L37.55 85.37C37.64 85.53 37.73 85.7 37.82 85.87H60.27V71.96C60.27 71.62 60.29 71.28 60.33 70.94H47.61C46.97 70.94 46.4 70.68 45.98 70.26C45.56 69.84 45.3 69.27 45.3 68.63V58.03C45.14 57.95 44.99 57.86 44.83 57.76C44.56 57.58 44.3 57.37 44.06 57.13L44.02 57.09C43.55 56.62 43.16 56.05 42.9 55.41C42.65 54.8 42.51 54.13 42.51 53.43C42.51 52.75 42.64 52.1 42.89 51.49L42.9 51.45C43.16 50.81 43.55 50.25 44.02 49.77C44.49 49.3 45.06 48.91 45.7 48.65C46.31 48.4 46.98 48.26 47.68 48.26C48.37 48.26 49.04 48.4 49.66 48.65C50.3 48.91 50.87 49.3 51.34 49.77C51.8 50.26 52.19 50.84 52.45 51.48C52.7 52.09 52.84 52.76 52.84 53.46C52.84 54.16 52.7 54.83 52.45 55.44C52.19 56.05 51.82 56.61 51.36 57.07L51.33 57.11C51.07 57.37 50.77 57.62 50.44 57.81C50.27 57.91 50.09 58.02 49.89 58.11V66.33H62.44V66.39C62.52 66.3 62.61 66.21 62.69 66.13C64.24 64.58 66.39 63.62 68.76 63.62H73.57V36.73H58.54C58.46 36.86 58.38 36.99 58.29 37.12C58.11 37.38 57.91 37.61 57.69 37.84C57.22 38.31 56.65 38.7 56.01 38.96C55.4 39.21 54.73 39.35 54.03 39.35C53.34 39.35 52.66 39.21 52.05 38.96C51.41 38.7 50.85 38.31 50.37 37.84C49.9 37.37 49.51 36.8 49.25 36.16C49 35.54 48.86 34.88 48.86 34.17C48.86 33.48 49 32.82 49.25 32.19C49.51 31.55 49.9 30.98 50.37 30.51C50.84 30.04 51.41 29.65 52.05 29.39C52.66 29.14 53.33 29 54.03 29C54.71 29 55.36 29.13 55.97 29.38L56.01 29.39C56.65 29.65 57.21 30.04 57.69 30.51C57.98 30.8 58.24 31.14 58.46 31.49C58.58 31.68 58.69 31.91 58.79 32.12H75.88C76.52 32.12 77.09 32.38 77.51 32.8C77.94 33.23 78.2 33.8 78.2 34.44V63.62H89.4V38.81C89.23 38.72 89.06 38.63 88.89 38.52C88.58 38.33 88.29 38.09 88.04 37.84C87.56 37.36 87.18 36.8 86.92 36.16C86.67 35.55 86.53 34.88 86.53 34.18C86.53 33.5 86.66 32.85 86.91 32.24L86.92 32.2C87.18 31.56 87.57 31 88.04 30.52C88.51 30.05 89.08 29.66 89.72 29.4C90.33 29.15 91 29.01 91.7 29.01C92.39 29.01 93.06 29.15 93.68 29.4C94.32 29.66 94.89 30.05 95.36 30.52C95.83 30.99 96.22 31.56 96.48 32.2C96.73 32.81 96.87 33.48 96.87 34.18C96.87 34.86 96.74 35.51 96.49 36.12L96.48 36.16C96.22 36.8 95.83 37.36 95.36 37.84C95.11 38.09 94.84 38.31 94.54 38.51L94.5 38.54C94.34 38.63 94.17 38.72 94 38.81V63.61H108.93V48.61C108.93 47.97 109.19 47.4 109.61 46.98C110.03 46.56 110.6 46.3 111.24 46.3H121.85C121.93 46.14 122.02 45.99 122.12 45.83C122.3 45.56 122.51 45.3 122.75 45.06L122.79 45.02C123.26 44.55 123.83 44.16 124.47 43.9C125.08 43.65 125.75 43.51 126.45 43.51C127.13 43.51 127.78 43.64 128.39 43.89L128.43 43.9C129.07 44.16 129.63 44.55 130.11 45.02C130.58 45.49 130.97 46.06 131.23 46.7C131.48 47.31 131.62 47.98 131.62 48.68C131.62 49.37 131.48 50.04 131.23 50.66C130.97 51.3 130.58 51.87 130.11 52.34C129.61 52.8 129.04 53.19 128.4 53.45C127.79 53.7 127.12 53.84 126.42 53.84C125.72 53.84 125.05 53.7 124.44 53.45C123.83 53.19 123.27 52.82 122.81 52.36L122.77 52.33C122.51 52.07 122.26 51.77 122.07 51.45C121.96 51.28 121.86 51.1 121.77 50.9H113.55V63.74C115.32 64.05 116.9 64.91 118.11 66.12C119.62 67.63 120.55 69.69 120.55 71.95V72.98H143.15V57.93C143.02 57.85 142.89 57.77 142.76 57.68C142.5 57.5 142.27 57.3 142.05 57.08C141.58 56.61 141.19 56.04 140.93 55.4C140.68 54.79 140.54 54.12 140.54 53.42C140.54 52.73 140.68 52.05 140.93 51.44C141.19 50.8 141.58 50.24 142.05 49.76C142.52 49.29 143.09 48.9 143.73 48.64C144.34 48.39 145.01 48.25 145.71 48.25C146.4 48.25 147.07 48.39 147.69 48.64C148.33 48.9 148.9 49.29 149.37 49.76C149.84 50.23 150.23 50.8 150.49 51.44C150.74 52.05 150.88 52.72 150.88 53.42C150.88 54.1 150.75 54.75 150.5 55.36L150.49 55.4C150.23 56.04 149.84 56.6 149.37 57.08C149.08 57.37 148.74 57.63 148.39 57.85C148.19 57.97 147.97 58.08 147.76 58.18V75.27C147.76 75.91 147.5 76.48 147.08 76.9C146.65 77.33 146.08 77.59 145.44 77.59H120.55V88.79H141.07C141.16 88.62 141.25 88.45 141.36 88.28C141.56 87.97 141.79 87.68 142.04 87.43C142.52 86.95 143.08 86.57 143.72 86.31C144.33 86.06 145 85.92 145.7 85.92C146.38 85.92 147.03 86.05 147.64 86.3L147.68 86.31C148.32 86.57 148.88 86.96 149.36 87.43C149.83 87.9 150.22 88.47 150.48 89.11C150.73 89.72 150.87 90.39 150.87 91.09C150.87 91.78 150.73 92.45 150.48 93.07C150.22 93.71 149.83 94.28 149.36 94.75C148.89 95.22 148.32 95.61 147.68 95.87C147.07 96.12 146.4 96.26 145.7 96.26C145.02 96.26 144.37 96.13 143.76 95.88L143.72 95.87C143.08 95.61 142.52 95.22 142.04 94.75C141.79 94.5 141.57 94.23 141.37 93.93L141.34 93.89C141.25 93.73 141.16 93.56 141.07 93.39H120.55V108.32H131.27C131.91 108.32 132.48 108.58 132.9 109C133.32 109.42 133.58 109.99 133.58 110.63V121.24C133.74 121.32 133.89 121.41 134.05 121.52C134.32 121.7 134.58 121.91 134.82 122.15L134.86 122.19C135.33 122.66 135.72 123.23 135.98 123.87C136.23 124.48 136.37 125.15 136.37 125.85C136.37 126.53 136.24 127.18 135.99 127.79L135.98 127.83C135.72 128.47 135.33 129.03 134.86 129.51C134.39 129.98 133.82 130.37 133.18 130.63C132.57 130.88 131.9 131.02 131.2 131.02C130.51 131.02 129.84 130.88 129.22 130.63C128.58 130.37 128.01 129.98 127.54 129.51C127.08 129.02 126.68 128.44 126.42 127.8ZM81.49 81.14H99.33C100.72 81.14 101.85 82.27 101.85 83.66V100.09C101.85 101.48 100.72 102.61 99.33 102.61H81.49C80.1 102.61 78.97 101.48 78.97 100.09V83.66C78.97 82.27 80.1 81.14 81.49 81.14ZM112.04 68.08H68.77C67.78 68.08 66.87 68.49 66.21 69.16C65.5 69.87 65.06 70.86 65.06 71.96V111.79C65.06 112.89 65.5 113.88 66.21 114.59C66.88 115.26 67.78 115.67 68.77 115.67H112.04C113.03 115.67 113.94 115.26 114.6 114.59C115.31 113.88 115.75 112.89 115.75 111.79V71.96C115.75 70.86 115.31 69.87 114.6 69.16C113.94 68.49 113.03 68.08 112.04 68.08Z" fill="white"/>
</svg>
