<svg viewBox="0 0 1215 1215" fill="none" xmlns="http://www.w3.org/2000/svg">
<g filter="url(#filter0_d)">
<path d="M1211 0H4V1207H1211V0Z" fill="#F7DF1E"/>
<path d="M362.4 1116.2C461.6 1116.2 529.6 1063.4 529.6 947.4V565H417.6V945.8C417.6 1001.8 394.4 1016.2 357.6 1016.2C319.2 1016.2 303.2 989.8 285.6 958.6L194.4 1013.8C220.8 1069.8 272.8 1116.2 362.4 1116.2ZM1073.68 1113.8H1084.88V565H980.075V793C980.075 830.6 987.275 892.2 987.275 892.2C987.275 892.2 949.675 842.6 923.275 817.8L648.875 560.2H637.675V1109H742.475V881C742.475 841.8 734.475 781.8 734.475 781.8C734.475 781.8 772.075 830.6 799.275 856.2L1073.68 1113.8Z" fill="black"/>
</g>
<defs>
<filter id="filter0_d" x="0" y="0"  filterUnits="userSpaceOnUse" color-interpolation-filters="sRGB">
<feFlood flood-opacity="0" result="BackgroundImageFix"/>
<feColorMatrix in="SourceAlpha" type="matrix" values="0 0 0 0 0 0 0 0 0 0 0 0 0 0 0 0 0 0 127 0" result="hardAlpha"/>
<feOffset dy="4"/>
<feGaussianBlur stdDeviation="2"/>
<feComposite in2="hardAlpha" operator="out"/>
<feColorMatrix type="matrix" values="0 0 0 0 0 0 0 0 0 0 0 0 0 0 0 0 0 0 0.25 0"/>
<feBlend mode="normal" in2="BackgroundImageFix" result="effect1_dropShadow"/>
<feBlend mode="normal" in="SourceGraphic" in2="effect1_dropShadow" result="shape"/>
</filter>
</defs>
</svg>
